<?xml version="1.0" encoding="UTF-8" standalone="no"?>
<!-- Created with Inkscape (http://www.inkscape.org/) -->

<svg
   width="650mm"
   height="550mm"
   viewBox="0 0 650 549.99998"
   version="1.1"
   id="svg1"
   inkscape:version="1.3.2 (091e20e, 2023-11-25, custom)"
   sodipodi:docname="basic layout.svg"
   xml:space="preserve"
   xmlns:inkscape="http://www.inkscape.org/namespaces/inkscape"
   xmlns:sodipodi="http://sodipodi.sourceforge.net/DTD/sodipodi-0.dtd"
   xmlns:xlink="http://www.w3.org/1999/xlink"
   xmlns="http://www.w3.org/2000/svg"
   xmlns:svg="http://www.w3.org/2000/svg"><sodipodi:namedview
     id="namedview1"
     pagecolor="#ffffff"
     bordercolor="#000000"
     borderopacity="0.25"
     inkscape:showpageshadow="2"
     inkscape:pageopacity="0.0"
     inkscape:pagecheckerboard="0"
     inkscape:deskcolor="#d1d1d1"
     inkscape:document-units="mm"
     inkscape:zoom="0.18856157"
     inkscape:cx="612.53202"
     inkscape:cy="1490.2294"
     inkscape:window-width="1920"
     inkscape:window-height="1009"
     inkscape:window-x="-8"
     inkscape:window-y="-8"
     inkscape:window-maximized="1"
     inkscape:current-layer="layer1" /><defs
     id="defs1"><marker
       style="overflow:visible"
       id="DartArrow"
       refX="0"
       refY="0"
       orient="auto-start-reverse"
       inkscape:stockid="Dart arrow"
       markerWidth="1"
       markerHeight="1"
       viewBox="0 0 1 1"
       inkscape:isstock="true"
       inkscape:collect="always"
       preserveAspectRatio="xMidYMid"><path
         style="fill:context-stroke;fill-rule:evenodd;stroke:none"
         d="M 0,0 5,-5 -12.5,0 5,5 Z"
         transform="scale(-0.5)"
         id="path7" /></marker><marker
       id="CheckToolsAndOPMarker"
       orient="auto"
       refX="-4"
       refY="-1.687441"
       style="overflow:visible"><path
         d="m 4.588864,-1.687441 v 0 L 9.177728,0 c -0.73311,-0.996261 -0.728882,-2.359329 0,-3.374882"
         style="fill:#000044;fill-rule:evenodd;stroke:none"
         id="path81" /></marker><marker
       id="DrawCurveMarker"
       orient="auto"
       refX="-4"
       refY="-1.687441"
       style="overflow:visible"><path
         d="m 4.588864,-1.687441 v 0 L 9.177728,0 c -0.73311,-0.996261 -0.728882,-2.359329 0,-3.374882"
         style="fill:#000044;fill-rule:evenodd;stroke:none"
         id="path82" /></marker><marker
       id="DrawCurveMarker_r"
       orient="auto"
       refX="4"
       refY="-1.687441"
       style="overflow:visible"><path
         d="m -4.588864,-1.687441 v 0 L -9.177728,0 c 0.73311,-0.996261 0.728882,-2.359329 0,-3.374882"
         style="fill:#000044;fill-rule:evenodd;stroke:none"
         id="path83" /></marker><marker
       id="InOutPathMarker"
       orient="auto"
       refX="-4"
       refY="-1.687441"
       style="overflow:visible"><path
         d="m 4.588864,-1.687441 v 0 L 9.177728,0 c -0.73311,-0.996261 -0.728882,-2.359329 0,-3.374882"
         style="fill:#0072a7;fill-rule:evenodd;stroke:none"
         id="path84" /></marker></defs><g
     inkscape:groupmode="layer"
     id="layer2"
     inkscape:label="Dexarm Workspace"
     style="display:inline"><rect
       style="font-variation-settings:normal;opacity:1;fill:#8a8a8a;fill-opacity:0.670554;fill-rule:evenodd;stroke:none;stroke-width:0.865;stroke-linecap:butt;stroke-linejoin:miter;stroke-miterlimit:4;stroke-dasharray:none;stroke-dashoffset:0;stroke-opacity:1;stop-color:#000000;stop-opacity:1"
       id="rect17"
       width="127"
       height="145"
       x="212.63409"
       y="-249.57025"
       rx="9.5466528"
       ry="0"
       transform="rotate(90)" /><g
       id="g13"
       transform="rotate(-90,431.51987,51.261969)"
       inkscape:label="tablet"
       inkscape:transform-center-x="0.033181131"
       inkscape:transform-center-y="-15.643597"><path
         id="rect1670"
         style="opacity:1;vector-effect:none;fill:none;fill-rule:evenodd;stroke:#000000;stroke-width:0.264583;stop-color:#000000;stop-opacity:1"
         d="M 103.18588,13.416329 H 309.9213 V 179.15174 H 103.18588 Z" /><circle
         style="font-variation-settings:normal;opacity:1;vector-effect:none;fill:none;fill-opacity:1;fill-rule:evenodd;stroke:#000000;stroke-width:0.264999;stroke-linecap:butt;stroke-linejoin:miter;stroke-miterlimit:4;stroke-dasharray:none;stroke-dashoffset:0;stroke-opacity:1;-inkscape-stroke:none;stop-color:#000000;stop-opacity:1"
         id="path3"
         cx="324.81268"
         cy="67.151535"
         r="5" /><path
         style="font-variation-settings:normal;opacity:1;vector-effect:none;fill:none;fill-opacity:1;stroke:#bababa;stroke-width:0.264999;stroke-linecap:butt;stroke-linejoin:miter;stroke-miterlimit:4;stroke-dasharray:none;stroke-dashoffset:0;stroke-opacity:1;-inkscape-stroke:none;stop-color:#000000;stop-opacity:1"
         d="M 324.81257,12.151536 V 67.151538"
         id="path4" /><path
         style="font-variation-settings:normal;opacity:1;vector-effect:none;fill:none;fill-opacity:1;stroke:#bababa;stroke-width:0.264999;stroke-linecap:butt;stroke-linejoin:miter;stroke-miterlimit:4;stroke-dasharray:none;stroke-dashoffset:0;stroke-opacity:1;-inkscape-stroke:none;stop-color:#000000;stop-opacity:1"
         d="m 309.83548,67.151536 h 15"
         id="path5" /><rect
         style="font-variation-settings:normal;opacity:1;vector-effect:none;fill:none;fill-opacity:1;fill-rule:evenodd;stroke:#000000;stroke-width:0.264999;stroke-linecap:butt;stroke-linejoin:miter;stroke-miterlimit:4;stroke-dasharray:none;stroke-dashoffset:0;stroke-opacity:1;-inkscape-stroke:none;stop-color:#000000;stop-opacity:1"
         id="rect1"
         width="238"
         height="168"
         x="101.89785"
         y="12.284036" /><path
         style="font-variation-settings:normal;opacity:1;vector-effect:none;fill:none;fill-opacity:1;stroke:#bababa;stroke-width:0.264999;stroke-linecap:butt;stroke-linejoin:miter;stroke-miterlimit:4;stroke-dasharray:none;stroke-dashoffset:0;stroke-opacity:1;-inkscape-stroke:none;stop-color:#000000;stop-opacity:1"
         d="m 324.81942,67.145114 h 15"
         id="path11"
         sodipodi:nodetypes="cc" /><path
         id="path1219"
         style="opacity:1;fill:none;fill-rule:evenodd;stroke:#848484;stroke-width:0.965;stroke-dasharray:5.79, 5.79;stroke-dashoffset:0;stroke-opacity:1;stop-color:#000000;stop-opacity:1"
         sodipodi:type="inkscape:offset"
         inkscape:radius="-8.9958334"
         inkscape:original="M 103.18555 13.416016 L 103.18555 179.15234 L 309.92188 179.15234 L 309.92188 13.416016 L 103.18555 13.416016 z "
         d="M 112.18164,22.412109 V 170.15625 H 300.92578 V 22.412109 Z" /></g><path
       style="font-variation-settings:normal;opacity:1;fill:none;fill-opacity:1;fill-rule:evenodd;stroke:#adadad;stroke-width:0.999999;stroke-linecap:butt;stroke-linejoin:miter;stroke-miterlimit:4;stroke-dasharray:8, 8;stroke-dashoffset:0;stroke-opacity:1;stop-color:#000000;stop-opacity:1"
       id="path1"
       sodipodi:type="arc"
       sodipodi:cx="276.13409"
       sodipodi:cy="-177.07039"
       sodipodi:rx="219.5"
       sodipodi:ry="219.50186"
       sodipodi:start="3.1415927"
       sodipodi:end="0"
       sodipodi:open="true"
       sodipodi:arc-type="arc"
       d="m 56.634094,-177.07039 a 219.5,219.50186 0 0 1 219.499996,-219.50186 219.5,219.50186 0 0 1 219.5,219.50186"
       inkscape:label="inner boundary"
       transform="rotate(90)" /><path
       style="font-variation-settings:normal;opacity:1;fill:none;fill-opacity:1;fill-rule:evenodd;stroke:#adadad;stroke-width:1;stroke-linecap:butt;stroke-linejoin:miter;stroke-miterlimit:4;stroke-dasharray:8, 8;stroke-dashoffset:0;stroke-opacity:1;stop-color:#000000;stop-opacity:1"
       id="path2"
       sodipodi:type="arc"
       sodipodi:cx="276.13409"
       sodipodi:cy="-177.07054"
       sodipodi:rx="389.5"
       sodipodi:ry="389.52045"
       sodipodi:start="3.1415927"
       sodipodi:end="0"
       sodipodi:open="true"
       sodipodi:arc-type="arc"
       d="m -113.36591,-177.07054 a 389.5,389.52045 0 0 1 389.5,-389.52045 389.5,389.52045 0 0 1 389.5,389.52045"
       inkscape:label="outer boundary"
       transform="rotate(90)" /><path
       style="font-variation-settings:normal;opacity:1;fill:none;fill-opacity:1;stroke:#acacac;stroke-width:0.565;stroke-linecap:butt;stroke-linejoin:miter;stroke-miterlimit:4;stroke-dasharray:4.52, 4.52;stroke-dashoffset:0;stroke-opacity:1;stop-color:#000000;stop-opacity:1"
       d="M 177.08261,276.19989 H 577.41006"
       id="path12"
       sodipodi:nodetypes="cc"
       inkscape:label="x=0 line" /><path
       style="font-variation-settings:normal;opacity:1;fill:none;fill-opacity:1;stroke:#000000;stroke-width:0.565;stroke-linecap:butt;stroke-linejoin:miter;stroke-miterlimit:4;stroke-dasharray:none;stroke-dashoffset:0;stroke-opacity:1;marker-start:url(#DartArrow);marker-end:url(#DartArrow);stop-color:#000000;stop-opacity:1"
       d="m 225.80015,276.4125 h -48.45161 v 50.36778"
       id="path6"
       sodipodi:nodetypes="ccc" /><text
       xml:space="preserve"
       style="font-style:normal;font-variant:normal;font-weight:normal;font-stretch:normal;font-size:25.7213px;line-height:1.25;font-family:sans-serif;-inkscape-font-specification:'sans-serif, Normal';font-variant-ligatures:normal;font-variant-position:normal;font-variant-caps:normal;font-variant-numeric:normal;font-variant-alternates:normal;font-variant-east-asian:normal;text-indent:0;text-align:start;text-decoration-line:none;text-decoration-style:solid;text-decoration-color:#000000;letter-spacing:normal;word-spacing:normal;text-transform:none;writing-mode:lr-tb;direction:ltr;text-orientation:mixed;dominant-baseline:auto;baseline-shift:baseline;text-anchor:start;white-space:normal;shape-padding:0;shape-margin:0;inline-size:0;opacity:1;vector-effect:none;fill:#000000;fill-opacity:1;stroke-width:0.964549;stroke-linecap:butt;stroke-linejoin:miter;stroke-miterlimit:4;stroke-dasharray:none;stroke-dashoffset:0;stroke-opacity:1;-inkscape-stroke:none;stop-color:#000000;stop-opacity:1"
       x="223"
       y="-19"
       id="text16"
       transform="matrix(0,0.2743076,-0.2743076,0,175.30169,262.35948)"><tspan
         sodipodi:role="line"
         id="tspan16"
         x="223"
         y="-19"
         style="font-style:normal;font-variant:normal;font-weight:normal;font-stretch:normal;font-size:25.7213px;font-family:sans-serif;-inkscape-font-specification:'sans-serif, Normal';font-variant-ligatures:normal;font-variant-caps:normal;font-variant-numeric:normal;font-variant-east-asian:normal;stroke-width:0.964549">X</tspan></text><text
       xml:space="preserve"
       style="font-style:normal;font-variant:normal;font-weight:normal;font-stretch:normal;font-size:25.7213px;line-height:1.25;font-family:sans-serif;-inkscape-font-specification:'sans-serif, Normal';font-variant-ligatures:normal;font-variant-position:normal;font-variant-caps:normal;font-variant-numeric:normal;font-variant-alternates:normal;font-variant-east-asian:normal;text-indent:0;text-align:start;text-decoration-line:none;text-decoration-style:solid;text-decoration-color:#000000;letter-spacing:normal;word-spacing:normal;text-transform:none;writing-mode:lr-tb;direction:ltr;text-orientation:mixed;dominant-baseline:auto;baseline-shift:baseline;text-anchor:start;white-space:normal;shape-padding:0;shape-margin:0;inline-size:0;opacity:1;vector-effect:none;fill:#000000;fill-opacity:1;stroke-width:0.964549;stroke-linecap:butt;stroke-linejoin:miter;stroke-miterlimit:4;stroke-dasharray:none;stroke-dashoffset:0;stroke-opacity:1;-inkscape-stroke:none;stop-color:#000000;stop-opacity:1"
       x="12"
       y="-219"
       id="text17"
       transform="matrix(0,0.2743076,-0.2743076,0,159.96042,277.88784)"><tspan
         sodipodi:role="line"
         id="tspan17"
         x="12"
         y="-219"
         style="font-style:normal;font-variant:normal;font-weight:normal;font-stretch:normal;font-size:25.7213px;font-family:sans-serif;-inkscape-font-specification:'sans-serif, Normal';font-variant-ligatures:normal;font-variant-caps:normal;font-variant-numeric:normal;font-variant-east-asian:normal;stroke-width:0.964549">Y</tspan></text><text
       xml:space="preserve"
       style="font-style:normal;font-variant:normal;font-weight:normal;font-stretch:normal;font-size:16px;line-height:1.25;font-family:sans-serif;font-variant-ligatures:normal;font-variant-position:normal;font-variant-caps:normal;font-variant-numeric:normal;font-variant-alternates:normal;font-variant-east-asian:normal;font-feature-settings:normal;font-variation-settings:normal;text-indent:0;text-align:center;text-decoration-line:none;text-decoration-style:solid;text-decoration-color:#000000;letter-spacing:normal;word-spacing:normal;text-transform:none;writing-mode:lr-tb;direction:ltr;text-orientation:mixed;dominant-baseline:auto;baseline-shift:baseline;text-anchor:middle;white-space:normal;shape-padding:0;shape-margin:0;inline-size:0;opacity:1;vector-effect:none;fill:#000000;fill-opacity:1;stroke-width:0.242668;stroke-linecap:butt;stroke-linejoin:miter;stroke-miterlimit:4;stroke-dasharray:none;stroke-dashoffset:0;stroke-opacity:1;-inkscape-stroke:none;stop-color:#000000;stop-opacity:1"
       x="-53.730469"
       y="144"
       id="text21"
       transform="matrix(0,1.0903098,-1.0903098,0,284.48043,333.64849)"><tspan
         sodipodi:role="line"
         id="tspan21"
         x="-53.730469"
         y="144"
         style="text-align:center;text-anchor:middle;stroke-width:0.242668">Robot</tspan><tspan
         sodipodi:role="line"
         x="-53.730469"
         y="164"
         style="text-align:center;text-anchor:middle;stroke-width:0.242668"
         id="tspan22">Base</tspan></text><text
       xml:space="preserve"
       style="font-style:normal;font-variant:normal;font-weight:normal;font-stretch:normal;font-size:16px;line-height:1.25;font-family:sans-serif;font-variant-ligatures:normal;font-variant-position:normal;font-variant-caps:normal;font-variant-numeric:normal;font-variant-alternates:normal;font-variant-east-asian:normal;font-feature-settings:normal;font-variation-settings:normal;text-indent:0;text-align:start;text-decoration-line:none;text-decoration-style:solid;text-decoration-color:#000000;letter-spacing:normal;word-spacing:normal;text-transform:none;writing-mode:lr-tb;direction:ltr;text-orientation:mixed;dominant-baseline:auto;baseline-shift:baseline;text-anchor:start;white-space:normal;shape-padding:0;shape-margin:0;inline-size:0;opacity:1;vector-effect:none;fill:#000000;fill-opacity:1;stroke-width:0.444873;stroke-linecap:butt;stroke-linejoin:miter;stroke-miterlimit:4;stroke-dasharray:none;stroke-dashoffset:0;stroke-opacity:1;-inkscape-stroke:none;stop-color:#000000;stop-opacity:1"
       x="23.334524"
       y="-490.35416"
       id="text8"
       transform="matrix(0,0.59473835,-0.59473835,0,-126.33792,641.09524)"><tspan
         sodipodi:role="line"
         x="23.334524"
         y="-490.35416"
         style="stroke-width:0.444873"
         id="tspan10">Ymax: 390 mm</tspan></text><text
       xml:space="preserve"
       style="font-style:normal;font-variant:normal;font-weight:normal;font-stretch:normal;font-size:16px;line-height:1.25;font-family:sans-serif;font-variant-ligatures:normal;font-variant-position:normal;font-variant-caps:normal;font-variant-numeric:normal;font-variant-alternates:normal;font-variant-east-asian:normal;font-feature-settings:normal;font-variation-settings:normal;text-indent:0;text-align:start;text-decoration-line:none;text-decoration-style:solid;text-decoration-color:#000000;letter-spacing:normal;word-spacing:normal;text-transform:none;writing-mode:lr-tb;direction:ltr;text-orientation:mixed;dominant-baseline:auto;baseline-shift:baseline;text-anchor:start;white-space:normal;shape-padding:0;shape-margin:0;inline-size:0;opacity:1;vector-effect:none;fill:#000000;fill-opacity:1;stroke-width:0.444873;stroke-linecap:butt;stroke-linejoin:miter;stroke-miterlimit:4;stroke-dasharray:none;stroke-dashoffset:0;stroke-opacity:1;-inkscape-stroke:none;stop-color:#000000;stop-opacity:1"
       x="23.334524"
       y="-490.35416"
       id="text9"
       transform="matrix(0,0.59473835,-0.59473835,0,-125.21538,450.45188)"><tspan
         sodipodi:role="line"
         id="tspan9"
         x="23.334524"
         y="-490.35416"
         style="stroke-width:0.444873">Ymin: 220 mm</tspan></text><text
       xml:space="preserve"
       style="font-style:normal;font-variant:normal;font-weight:normal;font-stretch:normal;font-size:16px;line-height:1.25;font-family:sans-serif;font-variant-ligatures:normal;font-variant-position:normal;font-variant-caps:normal;font-variant-numeric:normal;font-variant-alternates:normal;font-variant-east-asian:normal;font-feature-settings:normal;font-variation-settings:normal;text-indent:0;text-align:start;text-decoration-line:none;text-decoration-style:solid;text-decoration-color:#000000;letter-spacing:normal;word-spacing:normal;text-transform:none;writing-mode:lr-tb;direction:ltr;text-orientation:mixed;dominant-baseline:auto;baseline-shift:baseline;text-anchor:start;white-space:normal;shape-padding:0;shape-margin:0;inline-size:0;opacity:1;vector-effect:none;fill:#626262;fill-opacity:1;stroke-width:0.531557;stroke-linecap:butt;stroke-linejoin:miter;stroke-miterlimit:4;stroke-dasharray:none;stroke-dashoffset:0;stroke-opacity:1;-inkscape-stroke:none;stop-color:#000000;stop-opacity:1"
       x="522"
       y="-1198.8721"
       id="text11"
       transform="matrix(0,0.49775071,-0.49775071,0,-130.74917,-175.61461)"><tspan
         sodipodi:role="line"
         id="tspan11"
         x="522"
         y="-1198.8721"
         style="fill:#626262;fill-opacity:1;stroke-width:0.531557">reset button: </tspan><tspan
         sodipodi:role="line"
         x="522"
         y="-1178.8721"
         id="tspan12"
         style="fill:#626262;fill-opacity:1;stroke-width:0.531557">in theory:</tspan><tspan
         sodipodi:role="line"
         x="522"
         y="-1158.8721"
         style="fill:#626262;fill-opacity:1;stroke-width:0.531557"
         id="tspan1210">X: -118 mm</tspan><tspan
         sodipodi:role="line"
         x="522"
         y="-1138.8721"
         style="fill:#626262;fill-opacity:1;stroke-width:0.531557"
         id="tspan1211">Y: 270 mm</tspan><tspan
         sodipodi:role="line"
         x="522"
         y="-1118.8721"
         style="fill:#626262;fill-opacity:1;stroke-width:0.531557"
         id="tspan1209" /><tspan
         sodipodi:role="line"
         x="522"
         y="-1098.8721"
         style="fill:#626262;fill-opacity:1;stroke-width:0.531557"
         id="tspan1207">in practice:</tspan><tspan
         sodipodi:role="line"
         x="522"
         y="-1078.8721"
         style="fill:#626262;fill-opacity:1;stroke-width:0.531557"
         id="tspan1208">X: -119 mm</tspan><tspan
         sodipodi:role="line"
         x="522"
         y="-1058.8721"
         id="tspan13"
         style="fill:#626262;fill-opacity:1;stroke-width:0.531557">Y: 269 mm</tspan></text><path
       style="font-variation-settings:normal;opacity:1;fill:none;fill-opacity:1;stroke:#000000;stroke-width:0.465;stroke-linecap:butt;stroke-linejoin:miter;stroke-miterlimit:4;stroke-dasharray:none;stroke-dashoffset:0;stroke-opacity:1;marker-start:url(#DartArrow);marker-end:url(#DartArrow);stop-color:#000000;stop-opacity:1"
       d="M 389.17403,449.17159 H 252.94525"
       id="path73"
       sodipodi:nodetypes="cc" /><text
       xml:space="preserve"
       style="font-style:normal;font-variant:normal;font-weight:normal;font-stretch:normal;font-size:16px;line-height:1.25;font-family:sans-serif;font-variant-ligatures:normal;font-variant-position:normal;font-variant-caps:normal;font-variant-numeric:normal;font-variant-alternates:normal;font-variant-east-asian:normal;font-feature-settings:normal;font-variation-settings:normal;text-indent:0;text-align:start;text-decoration-line:none;text-decoration-style:solid;text-decoration-color:#000000;letter-spacing:normal;word-spacing:normal;text-transform:none;writing-mode:lr-tb;direction:ltr;text-orientation:mixed;dominant-baseline:auto;baseline-shift:baseline;text-anchor:start;white-space:normal;shape-padding:0;shape-margin:0;inline-size:0;opacity:1;vector-effect:none;fill:#000000;fill-opacity:1;stroke-width:0.999999;stroke-linecap:butt;stroke-linejoin:miter;stroke-miterlimit:4;stroke-dasharray:none;stroke-dashoffset:0;stroke-opacity:1;-inkscape-stroke:none;stop-color:#000000;stop-opacity:1"
       x="20.506098"
       y="-527.12372"
       id="text75"
       transform="matrix(0,0.26458333,-0.26458333,0,177.17025,449.17159)"><tspan
         sodipodi:role="line"
         id="tspan75"
         x="20.506098"
         y="-527.12372">142 mm</tspan></text><path
       style="font-variation-settings:normal;opacity:1;fill:none;fill-opacity:1;stroke:#909090;stroke-width:0.465;stroke-linecap:butt;stroke-linejoin:miter;stroke-miterlimit:4;stroke-dasharray:1.395, 1.395;stroke-dashoffset:0;stroke-opacity:1;stop-color:#000000;stop-opacity:1"
       d="m 392.42473,410.85252 v 40.70032"
       id="path76"
       sodipodi:nodetypes="cc" /><path
       style="font-variation-settings:normal;opacity:1;fill:none;fill-opacity:1;stroke:#000000;stroke-width:0.465;stroke-linecap:butt;stroke-linejoin:miter;stroke-miterlimit:4;stroke-dasharray:none;stroke-dashoffset:0;stroke-opacity:1;marker-start:url(#DartArrow);marker-end:url(#DartArrow);stop-color:#000000;stop-opacity:1"
       d="M 239.09017,378.00773 V 342.6679"
       id="path77"
       sodipodi:nodetypes="cc" /><path
       style="font-variation-settings:normal;opacity:1;fill:none;fill-opacity:1;stroke:#909090;stroke-width:0.465;stroke-linecap:butt;stroke-linejoin:miter;stroke-miterlimit:4;stroke-dasharray:1.395, 1.395;stroke-dashoffset:0;stroke-opacity:1;stop-color:#000000;stop-opacity:1"
       d="M 391.33481,381.23587 H 238.20112"
       id="path78"
       sodipodi:nodetypes="cc" /><path
       style="font-variation-settings:normal;opacity:1;fill:none;fill-opacity:1;stroke:#909090;stroke-width:0.465;stroke-linecap:butt;stroke-linejoin:miter;stroke-miterlimit:4;stroke-dasharray:1.395, 1.395;stroke-dashoffset:0;stroke-opacity:1;stop-color:#000000;stop-opacity:1"
       d="M 391.92679,142.4957 H 238.20112"
       id="path79"
       sodipodi:nodetypes="cc" /><text
       xml:space="preserve"
       style="font-style:normal;font-variant:normal;font-weight:normal;font-stretch:normal;font-size:16px;line-height:1.25;font-family:sans-serif;font-variant-ligatures:normal;font-variant-position:normal;font-variant-caps:normal;font-variant-numeric:normal;font-variant-alternates:normal;font-variant-east-asian:normal;font-feature-settings:normal;font-variation-settings:normal;text-indent:0;text-align:start;text-decoration-line:none;text-decoration-style:solid;text-decoration-color:#000000;letter-spacing:normal;word-spacing:normal;text-transform:none;writing-mode:lr-tb;direction:ltr;text-orientation:mixed;dominant-baseline:auto;baseline-shift:baseline;text-anchor:start;white-space:normal;shape-padding:0;shape-margin:0;inline-size:0;opacity:1;vector-effect:none;fill:#000000;fill-opacity:1;stroke-width:0.999999;stroke-linecap:butt;stroke-linejoin:miter;stroke-miterlimit:4;stroke-dasharray:none;stroke-dashoffset:0;stroke-opacity:1;-inkscape-stroke:none;stop-color:#000000;stop-opacity:1"
       x="20.506098"
       y="-527.12372"
       id="text79"
       transform="matrix(0,0.26458333,-0.26458333,0,93.826508,346.57267)"><tspan
         sodipodi:role="line"
         id="tspan79"
         x="20.506098"
         y="-527.12372">41 mm</tspan></text><path
       style="font-variation-settings:normal;opacity:1;fill:none;fill-opacity:1;stroke:#000000;stroke-width:0.465;stroke-linecap:butt;stroke-linejoin:miter;stroke-miterlimit:4;stroke-dasharray:none;stroke-dashoffset:0;stroke-opacity:1;marker-start:url(#DartArrow);marker-end:url(#DartArrow);stop-color:#000000;stop-opacity:1"
       d="m 239.09017,209.71111 v -64.0802"
       id="path80"
       sodipodi:nodetypes="cc" /><text
       xml:space="preserve"
       style="font-style:normal;font-variant:normal;font-weight:normal;font-stretch:normal;font-size:16px;line-height:1.25;font-family:sans-serif;font-variant-ligatures:normal;font-variant-position:normal;font-variant-caps:normal;font-variant-numeric:normal;font-variant-alternates:normal;font-variant-east-asian:normal;font-feature-settings:normal;font-variation-settings:normal;text-indent:0;text-align:start;text-decoration-line:none;text-decoration-style:solid;text-decoration-color:#000000;letter-spacing:normal;word-spacing:normal;text-transform:none;writing-mode:lr-tb;direction:ltr;text-orientation:mixed;dominant-baseline:auto;baseline-shift:baseline;text-anchor:start;white-space:normal;shape-padding:0;shape-margin:0;inline-size:0;opacity:1;vector-effect:none;fill:#000000;fill-opacity:1;stroke-width:0.999999;stroke-linecap:butt;stroke-linejoin:miter;stroke-miterlimit:4;stroke-dasharray:none;stroke-dashoffset:0;stroke-opacity:1;-inkscape-stroke:none;stop-color:#000000;stop-opacity:1"
       x="20.506098"
       y="-527.12372"
       id="text80"
       transform="matrix(0,0.26458333,-0.26458333,0,93.826508,164.55078)"><tspan
         sodipodi:role="line"
         id="tspan80"
         x="20.506098"
         y="-527.12372">70 mm</tspan></text><path
       style="font-variation-settings:normal;opacity:1;fill:none;fill-opacity:1;stroke:#909090;stroke-width:0.465;stroke-linecap:butt;stroke-linejoin:miter;stroke-miterlimit:4;stroke-dasharray:1.395, 1.395;stroke-dashoffset:0;stroke-opacity:1;stop-color:#000000;stop-opacity:1"
       d="M 249.83067,276.66326 V 451.55284"
       id="path75" /></g><g
     inkscape:groupmode="layer"
     id="layer1"
     inkscape:label="graphical layout"
     style="display:inline"><rect
       style="fill:none;stroke:#000000;stroke-width:0.2;stroke-dasharray:none"
       id="rect2"
       width="238.3519"
       height="169.20712"
       x="142.88397"
       y="-560.54193"
       ry="2.9934187"
       transform="rotate(90)" /><rect
       style="fill:none;stroke:#000000;stroke-width:0.2;stroke-dasharray:none"
       id="rect3"
       width="127"
       height="145"
       x="212.63409"
       y="-249.57025"
       ry="6.6983323"
       transform="rotate(90)" /><g
       id="g9"
       transform="rotate(90,-49.481919,226.65218)"><circle
         style="fill:none;stroke:#000000;stroke-width:0.2;stroke-dasharray:none"
         id="path8"
         cx="-54.524632"
         cy="-63.403313"
         r="2.2187905" /><path
         style="fill:none;stroke:#000000;stroke-width:0.090209;stroke-dasharray:0.180418, 0.360836;stroke-dashoffset:0"
         d="m -54.569735,-72.403315 v 8.954896 h -8.954895"
         id="path9" /></g><use
       x="0"
       y="0"
       xlink:href="#g9"
       id="use9"
       transform="matrix(1,0,0,-1,-4.2261577e-6,552.29356)" /><use
       x="0"
       y="0"
       xlink:href="#g9"
       id="use10"
       transform="matrix(-1,0,0,1,354.09382,0)" /><use
       x="0"
       y="0"
       xlink:href="#g9"
       id="use11"
       transform="rotate(180,177.04691,276.14678)" /><g
       fill="#000000"
       fill-opacity="1"
       stroke="#000000"
       stroke-opacity="1"
       stroke-width="5"
       stroke-linecap="round"
       stroke-linejoin="bevel"
       font-family="Arial"
       font-size="12px"
       font-weight="400"
       font-style="normal"
       id="g11"
       style="fill-rule:evenodd;stroke-width:1.1811;stroke-dasharray:none"
       transform="matrix(0,0.08466653,-0.08466653,0,641.24452,29.52774)"><polyline
         fill="none"
         vector-effect="none"
         points="1337.13,963.261 1337.27,961.413 1337.7,959.611 1338.41,957.899 1339.38,956.319 1340.58,954.91 1341.99,953.706 1343.57,952.738 1345.29,952.029 1347.09,951.596 1348.93,951.451 "
         id="polyline3"
         style="stroke-width:1.1811;stroke-dasharray:none" /><polyline
         fill="none"
         vector-effect="none"
         points="1278.08,892.403 1396.17,892.403 "
         id="polyline4"
         style="stroke-width:1.1811;stroke-dasharray:none" /><polyline
         fill="none"
         vector-effect="none"
         points="1396.17,892.403 1396.17,951.451 "
         id="polyline5"
         style="stroke-width:1.1811;stroke-dasharray:none" /><polyline
         fill="none"
         vector-effect="none"
         points="1396.17,951.451 1348.93,951.451 "
         id="polyline6"
         style="stroke-width:1.1811;stroke-dasharray:none" /><polyline
         fill="none"
         vector-effect="none"
         points="1286.93,927.832 1287.1,924.857 1287.6,921.919 1288.43,919.056 1289.57,916.303 1291.01,913.695 1292.73,911.265 1294.72,909.043 1296.94,907.058 1299.37,905.333 1301.98,903.892 1304.73,902.752 1307.59,901.927 1310.53,901.428 1313.51,901.261 1316.48,901.428 1319.42,901.927 1322.28,902.752 1325.03,903.892 1327.64,905.333 1330.07,907.058 1332.29,909.043 1334.28,911.265 1336,913.695 1337.45,916.303 1338.59,919.056 1339.41,921.919 1339.91,924.857 1340.08,927.832 1339.91,930.807 1339.41,933.745 1338.59,936.608 1337.45,939.361 1336,941.969 1334.28,944.399 1332.29,946.621 1330.07,948.606 1327.64,950.331 1325.03,951.772 1322.28,952.912 1319.42,953.737 1316.48,954.236 1313.51,954.403 1310.53,954.236 1307.59,953.737 1304.73,952.912 1301.98,951.772 1299.37,950.331 1296.94,948.606 1294.72,946.621 1292.73,944.399 1291.01,941.969 1289.57,939.361 1288.43,936.608 1287.6,933.745 1287.1,930.807 1286.93,927.832 "
         id="polyline7"
         style="stroke-width:1.1811;stroke-dasharray:none" /><polyline
         fill="none"
         vector-effect="none"
         points="1278.08,1010.5 1278.08,892.403 "
         id="polyline8"
         style="stroke-width:1.1811;stroke-dasharray:none" /><polyline
         fill="none"
         vector-effect="none"
         points="1337.13,963.261 1337.13,1010.5 "
         id="polyline9"
         style="stroke-width:1.1811;stroke-dasharray:none" /><polyline
         fill="none"
         vector-effect="none"
         points="1337.13,1010.5 1278.08,1010.5 "
         id="polyline10"
         style="stroke-width:1.1811;stroke-dasharray:none" /><polyline
         fill="none"
         vector-effect="none"
         points="1298.15,927.832 1298.32,925.597 1298.8,923.409 1299.61,921.316 1300.7,919.361 1302.07,917.587 1303.69,916.031 1305.51,914.727 1307.5,913.703 1309.62,912.979 1311.83,912.572 1314.07,912.49 1316.29,912.735 1318.46,913.302 1320.53,914.178 1322.44,915.346 1324.16,916.78 1325.66,918.449 1326.89,920.318 1327.85,922.348 1328.49,924.494 1328.82,926.711 1328.82,928.953 1328.49,931.17 1327.85,933.316 1326.89,935.346 1325.66,937.215 1324.16,938.884 1322.44,940.318 1320.53,941.486 1318.46,942.362 1316.29,942.929 1314.07,943.174 1311.83,943.092 1309.62,942.685 1307.5,941.962 1305.51,940.937 1303.69,939.633 1302.07,938.077 1300.7,936.303 1299.61,934.348 1298.8,932.255 1298.32,930.067 1298.15,927.832 "
         id="polyline11"
         style="stroke-width:1.1811;stroke-dasharray:none" /></g><g
       fill="#000000"
       fill-opacity="1"
       stroke="#000000"
       stroke-opacity="1"
       stroke-width="5"
       stroke-linecap="round"
       stroke-linejoin="bevel"
       font-family="Arial"
       font-size="12px"
       font-weight="400"
       font-style="normal"
       id="g21"
       style="fill-rule:evenodd;stroke-width:1.1811;stroke-dasharray:none"
       transform="matrix(0,-0.08466653,0.08466653,0,310.63221,494.5921)"><polyline
         fill="none"
         vector-effect="none"
         points="1337.13,963.261 1337.27,961.413 1337.7,959.611 1338.41,957.899 1339.38,956.319 1340.58,954.91 1341.99,953.706 1343.57,952.738 1345.29,952.029 1347.09,951.596 1348.93,951.451 "
         id="polyline13"
         style="stroke-width:1.1811;stroke-dasharray:none" /><polyline
         fill="none"
         vector-effect="none"
         points="1278.08,892.403 1396.17,892.403 "
         id="polyline14"
         style="stroke-width:1.1811;stroke-dasharray:none" /><polyline
         fill="none"
         vector-effect="none"
         points="1396.17,892.403 1396.17,951.451 "
         id="polyline15"
         style="stroke-width:1.1811;stroke-dasharray:none" /><polyline
         fill="none"
         vector-effect="none"
         points="1396.17,951.451 1348.93,951.451 "
         id="polyline16"
         style="stroke-width:1.1811;stroke-dasharray:none" /><polyline
         fill="none"
         vector-effect="none"
         points="1286.93,927.832 1287.1,924.857 1287.6,921.919 1288.43,919.056 1289.57,916.303 1291.01,913.695 1292.73,911.265 1294.72,909.043 1296.94,907.058 1299.37,905.333 1301.98,903.892 1304.73,902.752 1307.59,901.927 1310.53,901.428 1313.51,901.261 1316.48,901.428 1319.42,901.927 1322.28,902.752 1325.03,903.892 1327.64,905.333 1330.07,907.058 1332.29,909.043 1334.28,911.265 1336,913.695 1337.45,916.303 1338.59,919.056 1339.41,921.919 1339.91,924.857 1340.08,927.832 1339.91,930.807 1339.41,933.745 1338.59,936.608 1337.45,939.361 1336,941.969 1334.28,944.399 1332.29,946.621 1330.07,948.606 1327.64,950.331 1325.03,951.772 1322.28,952.912 1319.42,953.737 1316.48,954.236 1313.51,954.403 1310.53,954.236 1307.59,953.737 1304.73,952.912 1301.98,951.772 1299.37,950.331 1296.94,948.606 1294.72,946.621 1292.73,944.399 1291.01,941.969 1289.57,939.361 1288.43,936.608 1287.6,933.745 1287.1,930.807 1286.93,927.832 "
         id="polyline17"
         style="stroke-width:1.1811;stroke-dasharray:none" /><polyline
         fill="none"
         vector-effect="none"
         points="1278.08,1010.5 1278.08,892.403 "
         id="polyline18"
         style="stroke-width:1.1811;stroke-dasharray:none" /><polyline
         fill="none"
         vector-effect="none"
         points="1337.13,963.261 1337.13,1010.5 "
         id="polyline19"
         style="stroke-width:1.1811;stroke-dasharray:none" /><polyline
         fill="none"
         vector-effect="none"
         points="1337.13,1010.5 1278.08,1010.5 "
         id="polyline20"
         style="stroke-width:1.1811;stroke-dasharray:none" /><polyline
         fill="none"
         vector-effect="none"
         points="1298.15,927.832 1298.32,925.597 1298.8,923.409 1299.61,921.316 1300.7,919.361 1302.07,917.587 1303.69,916.031 1305.51,914.727 1307.5,913.703 1309.62,912.979 1311.83,912.572 1314.07,912.49 1316.29,912.735 1318.46,913.302 1320.53,914.178 1322.44,915.346 1324.16,916.78 1325.66,918.449 1326.89,920.318 1327.85,922.348 1328.49,924.494 1328.82,926.711 1328.82,928.953 1328.49,931.17 1327.85,933.316 1326.89,935.346 1325.66,937.215 1324.16,938.884 1322.44,940.318 1320.53,941.486 1318.46,942.362 1316.29,942.929 1314.07,943.174 1311.83,943.092 1309.62,942.685 1307.5,941.962 1305.51,940.937 1303.69,939.633 1302.07,938.077 1300.7,936.303 1299.61,934.348 1298.8,932.255 1298.32,930.067 1298.15,927.832 "
         id="polyline21"
         style="stroke-width:1.1811;stroke-dasharray:none" /></g><g
       fill="#000000"
       fill-opacity="1"
       stroke="#000000"
       stroke-opacity="1"
       stroke-width="5"
       stroke-linecap="round"
       stroke-linejoin="bevel"
       font-family="Arial"
       font-size="12px"
       font-weight="400"
       font-style="normal"
       id="g30"
       style="fill-rule:evenodd;stroke-width:1.1811;stroke-dasharray:none"
       transform="matrix(0,-0.08466653,-0.08466653,0,641.24186,494.6004)"><polyline
         fill="none"
         vector-effect="none"
         points="1337.13,963.261 1337.27,961.413 1337.7,959.611 1338.41,957.899 1339.38,956.319 1340.58,954.91 1341.99,953.706 1343.57,952.738 1345.29,952.029 1347.09,951.596 1348.93,951.451 "
         id="polyline22"
         style="stroke-width:1.1811;stroke-dasharray:none" /><polyline
         fill="none"
         vector-effect="none"
         points="1278.08,892.403 1396.17,892.403 "
         id="polyline23"
         style="stroke-width:1.1811;stroke-dasharray:none" /><polyline
         fill="none"
         vector-effect="none"
         points="1396.17,892.403 1396.17,951.451 "
         id="polyline24"
         style="stroke-width:1.1811;stroke-dasharray:none" /><polyline
         fill="none"
         vector-effect="none"
         points="1396.17,951.451 1348.93,951.451 "
         id="polyline25"
         style="stroke-width:1.1811;stroke-dasharray:none" /><polyline
         fill="none"
         vector-effect="none"
         points="1286.93,927.832 1287.1,924.857 1287.6,921.919 1288.43,919.056 1289.57,916.303 1291.01,913.695 1292.73,911.265 1294.72,909.043 1296.94,907.058 1299.37,905.333 1301.98,903.892 1304.73,902.752 1307.59,901.927 1310.53,901.428 1313.51,901.261 1316.48,901.428 1319.42,901.927 1322.28,902.752 1325.03,903.892 1327.64,905.333 1330.07,907.058 1332.29,909.043 1334.28,911.265 1336,913.695 1337.45,916.303 1338.59,919.056 1339.41,921.919 1339.91,924.857 1340.08,927.832 1339.91,930.807 1339.41,933.745 1338.59,936.608 1337.45,939.361 1336,941.969 1334.28,944.399 1332.29,946.621 1330.07,948.606 1327.64,950.331 1325.03,951.772 1322.28,952.912 1319.42,953.737 1316.48,954.236 1313.51,954.403 1310.53,954.236 1307.59,953.737 1304.73,952.912 1301.98,951.772 1299.37,950.331 1296.94,948.606 1294.72,946.621 1292.73,944.399 1291.01,941.969 1289.57,939.361 1288.43,936.608 1287.6,933.745 1287.1,930.807 1286.93,927.832 "
         id="polyline26"
         style="stroke-width:1.1811;stroke-dasharray:none" /><polyline
         fill="none"
         vector-effect="none"
         points="1278.08,1010.5 1278.08,892.403 "
         id="polyline27"
         style="stroke-width:1.1811;stroke-dasharray:none" /><polyline
         fill="none"
         vector-effect="none"
         points="1337.13,963.261 1337.13,1010.5 "
         id="polyline28"
         style="stroke-width:1.1811;stroke-dasharray:none" /><polyline
         fill="none"
         vector-effect="none"
         points="1337.13,1010.5 1278.08,1010.5 "
         id="polyline29"
         style="stroke-width:1.1811;stroke-dasharray:none" /><polyline
         fill="none"
         vector-effect="none"
         points="1298.15,927.832 1298.32,925.597 1298.8,923.409 1299.61,921.316 1300.7,919.361 1302.07,917.587 1303.69,916.031 1305.51,914.727 1307.5,913.703 1309.62,912.979 1311.83,912.572 1314.07,912.49 1316.29,912.735 1318.46,913.302 1320.53,914.178 1322.44,915.346 1324.16,916.78 1325.66,918.449 1326.89,920.318 1327.85,922.348 1328.49,924.494 1328.82,926.711 1328.82,928.953 1328.49,931.17 1327.85,933.316 1326.89,935.346 1325.66,937.215 1324.16,938.884 1322.44,940.318 1320.53,941.486 1318.46,942.362 1316.29,942.929 1314.07,943.174 1311.83,943.092 1309.62,942.685 1307.5,941.962 1305.51,940.937 1303.69,939.633 1302.07,938.077 1300.7,936.303 1299.61,934.348 1298.8,932.255 1298.32,930.067 1298.15,927.832 "
         id="polyline30"
         style="stroke-width:1.1811;stroke-dasharray:none" /></g><g
       fill="#000000"
       fill-opacity="1"
       stroke="#000000"
       stroke-opacity="1"
       stroke-width="5"
       stroke-linecap="round"
       stroke-linejoin="bevel"
       font-family="Arial"
       font-size="12px"
       font-weight="400"
       font-style="normal"
       id="g39"
       style="fill-rule:evenodd;stroke-width:1.1811;stroke-dasharray:none"
       transform="matrix(0,0.08466653,0.08466653,0,310.63221,29.52774)"><polyline
         fill="none"
         vector-effect="none"
         points="1337.13,963.261 1337.27,961.413 1337.7,959.611 1338.41,957.899 1339.38,956.319 1340.58,954.91 1341.99,953.706 1343.57,952.738 1345.29,952.029 1347.09,951.596 1348.93,951.451 "
         id="polyline31"
         style="stroke-width:1.1811;stroke-dasharray:none" /><polyline
         fill="none"
         vector-effect="none"
         points="1278.08,892.403 1396.17,892.403 "
         id="polyline32"
         style="stroke-width:1.1811;stroke-dasharray:none" /><polyline
         fill="none"
         vector-effect="none"
         points="1396.17,892.403 1396.17,951.451 "
         id="polyline33"
         style="stroke-width:1.1811;stroke-dasharray:none" /><polyline
         fill="none"
         vector-effect="none"
         points="1396.17,951.451 1348.93,951.451 "
         id="polyline34"
         style="stroke-width:1.1811;stroke-dasharray:none" /><polyline
         fill="none"
         vector-effect="none"
         points="1286.93,927.832 1287.1,924.857 1287.6,921.919 1288.43,919.056 1289.57,916.303 1291.01,913.695 1292.73,911.265 1294.72,909.043 1296.94,907.058 1299.37,905.333 1301.98,903.892 1304.73,902.752 1307.59,901.927 1310.53,901.428 1313.51,901.261 1316.48,901.428 1319.42,901.927 1322.28,902.752 1325.03,903.892 1327.64,905.333 1330.07,907.058 1332.29,909.043 1334.28,911.265 1336,913.695 1337.45,916.303 1338.59,919.056 1339.41,921.919 1339.91,924.857 1340.08,927.832 1339.91,930.807 1339.41,933.745 1338.59,936.608 1337.45,939.361 1336,941.969 1334.28,944.399 1332.29,946.621 1330.07,948.606 1327.64,950.331 1325.03,951.772 1322.28,952.912 1319.42,953.737 1316.48,954.236 1313.51,954.403 1310.53,954.236 1307.59,953.737 1304.73,952.912 1301.98,951.772 1299.37,950.331 1296.94,948.606 1294.72,946.621 1292.73,944.399 1291.01,941.969 1289.57,939.361 1288.43,936.608 1287.6,933.745 1287.1,930.807 1286.93,927.832 "
         id="polyline35"
         style="stroke-width:1.1811;stroke-dasharray:none" /><polyline
         fill="none"
         vector-effect="none"
         points="1278.08,1010.5 1278.08,892.403 "
         id="polyline36"
         style="stroke-width:1.1811;stroke-dasharray:none" /><polyline
         fill="none"
         vector-effect="none"
         points="1337.13,963.261 1337.13,1010.5 "
         id="polyline37"
         style="stroke-width:1.1811;stroke-dasharray:none" /><polyline
         fill="none"
         vector-effect="none"
         points="1337.13,1010.5 1278.08,1010.5 "
         id="polyline38"
         style="stroke-width:1.1811;stroke-dasharray:none" /><polyline
         fill="none"
         vector-effect="none"
         points="1298.15,927.832 1298.32,925.597 1298.8,923.409 1299.61,921.316 1300.7,919.361 1302.07,917.587 1303.69,916.031 1305.51,914.727 1307.5,913.703 1309.62,912.979 1311.83,912.572 1314.07,912.49 1316.29,912.735 1318.46,913.302 1320.53,914.178 1322.44,915.346 1324.16,916.78 1325.66,918.449 1326.89,920.318 1327.85,922.348 1328.49,924.494 1328.82,926.711 1328.82,928.953 1328.49,931.17 1327.85,933.316 1326.89,935.346 1325.66,937.215 1324.16,938.884 1322.44,940.318 1320.53,941.486 1318.46,942.362 1316.29,942.929 1314.07,943.174 1311.83,943.092 1309.62,942.685 1307.5,941.962 1305.51,940.937 1303.69,939.633 1302.07,938.077 1300.7,936.303 1299.61,934.348 1298.8,932.255 1298.32,930.067 1298.15,927.832 "
         id="polyline39"
         style="stroke-width:1.1811;stroke-dasharray:none" /></g></g></svg>
