<?xml version="1.0" encoding="UTF-8" standalone="no"?>
<!-- Created with Inkscape (http://www.inkscape.org/) -->

<svg
   width="203.2mm"
   height="165.10001mm"
   viewBox="0 0 203.2 165.10001"
   version="1.1"
   id="svg1"
   inkscape:version="1.3.2 (091e20e, 2023-11-25, custom)"
   sodipodi:docname="WelcomToRazLab.svg"
   xmlns:inkscape="http://www.inkscape.org/namespaces/inkscape"
   xmlns:sodipodi="http://sodipodi.sourceforge.net/DTD/sodipodi-0.dtd"
   xmlns="http://www.w3.org/2000/svg"
   xmlns:svg="http://www.w3.org/2000/svg">
  <sodipodi:namedview
     id="namedview1"
     pagecolor="#ffffff"
     bordercolor="#000000"
     borderopacity="0.25"
     inkscape:showpageshadow="2"
     inkscape:pageopacity="0.0"
     inkscape:pagecheckerboard="0"
     inkscape:deskcolor="#d1d1d1"
     inkscape:document-units="mm"
     inkscape:zoom="0.36569516"
     inkscape:cx="440.2574"
     inkscape:cy="924.26709"
     inkscape:window-width="1368"
     inkscape:window-height="842"
     inkscape:window-x="-6"
     inkscape:window-y="-6"
     inkscape:window-maximized="1"
     inkscape:current-layer="g78" />
  <defs
     id="defs1">
    <marker
       id="CheckToolsAndOPMarker"
       orient="auto"
       refX="-4"
       refY="-1.687441"
       style="overflow:visible">
      <path
         d="m 4.588864,-1.687441 v 0 L 9.177728,0 c -0.73311,-0.996261 -0.728882,-2.359329 0,-3.374882"
         style="fill:#000044;fill-rule:evenodd;stroke:none"
         id="path81" />
    </marker>
    <marker
       id="DrawCurveMarker"
       orient="auto"
       refX="-4"
       refY="-1.687441"
       style="overflow:visible">
      <path
         d="m 4.588864,-1.687441 v 0 L 9.177728,0 c -0.73311,-0.996261 -0.728882,-2.359329 0,-3.374882"
         style="fill:#000044;fill-rule:evenodd;stroke:none"
         id="path82" />
    </marker>
    <marker
       id="DrawCurveMarker_r"
       orient="auto"
       refX="4"
       refY="-1.687441"
       style="overflow:visible">
      <path
         d="m -4.588864,-1.687441 v 0 L -9.177728,0 c 0.73311,-0.996261 0.728882,-2.359329 0,-3.374882"
         style="fill:#000044;fill-rule:evenodd;stroke:none"
         id="path83" />
    </marker>
    <marker
       id="InOutPathMarker"
       orient="auto"
       refX="-4"
       refY="-1.687441"
       style="overflow:visible">
      <path
         d="m 4.588864,-1.687441 v 0 L 9.177728,0 c -0.73311,-0.996261 -0.728882,-2.359329 0,-3.374882"
         style="fill:#0072a7;fill-rule:evenodd;stroke:none"
         id="path84" />
    </marker>
  </defs>
  <g
     inkscape:label="Layer 1"
     inkscape:groupmode="layer"
     id="layer1">
    <g
       id="text1"
       style="font-size:40.1721px;fill:none;stroke:#000000;stroke-width:0.865"
       aria-label="Welcome to&#10;the RAZ Lab">
      <path
         style="font-family:'Curlz MT';-inkscape-font-specification:'Curlz MT';text-align:center;text-anchor:middle"
         d="m 38.931785,40.063705 q 1.274993,0 1.274993,1.137686 0,0.725766 -0.941533,1.431916 -0.941534,0.686535 -2.059605,0.686535 -0.784611,0 -1.37307,-0.66692 -0.568843,-0.686534 -0.568843,-1.451531 0,-1.510376 1.37307,-2.863831 1.37307,-1.353454 2.844216,-1.353454 1.510377,0 2.432295,1.059225 0.941534,1.03961 0.941534,2.903062 0,1.804606 -0.568844,3.883826 -0.549227,2.059605 -2.706909,5.747278 -2.157681,3.668058 -3.844595,7.98342 -1.667299,4.295747 -1.784991,6.296506 l -0.804226,0.03923 -1.784991,-3.981903 q -1.686915,-3.726904 -2.903062,-7.453808 -1.216148,-3.746519 -2.059605,-7.041886 -3.648443,7.238039 -5.668817,17.182988 l -1.4123,0.490382 Q 18.374968,58.345149 15.74652,50.714804 13.118072,43.064843 10.646547,39.024095 9.7442436,39.220248 7.3511791,39.985244 L 7.1157957,39.181017 Q 11.274236,37.63141 18.080739,36.493723 l 0.313845,0.961149 q -1.216148,0.09808 -4.060364,0.725766 2.726524,7.022271 5.747278,23.067573 l 1.961528,-6.884964 q 0.451152,-1.529993 1.883067,-5.590356 1.431916,-4.060364 2.74614,-6.728042 l 2.569602,1.03961 q 0.353075,8.003035 4.334978,19.517206 1.314224,-7.846113 5.099973,-13.456084 1.902683,-2.804985 2.530372,-4.236901 0.647304,-1.451531 0.647304,-3.550366 0,-1.216148 -1.118071,-2.177297 -1.098456,-0.961149 -2.059605,-0.961149 -2.000759,0 -2.000759,2.216527 0,0.608074 0.431537,1.235763 0.431536,0.608074 0.980764,0.608074 1.07884,0 1.07884,-1.000379 0,-0.568844 -0.235383,-1.216148 z m 15.339154,19.007209 q 0.921919,0 0.921919,0.882688 0,0.568843 -0.509998,0.980764 -0.490382,0.392306 -0.941533,0.392306 -0.568844,0 -1.176917,-0.549228 -0.588459,-0.549228 -0.588459,-1.353454 0,-1.118072 0.725766,-1.745761 0.725765,-0.647304 1.804606,-0.647304 1.294608,0 2.157681,0.921918 0.863072,0.902303 0.863072,2.314604 0,1.667299 -1.471146,2.648063 -1.451531,0.980764 -3.197291,0.980764 -3.177676,0 -5.9042,-2.628448 -2.726525,-2.648063 -2.726525,-6.414197 0,-3.550367 2.648064,-6.453429 2.648063,-2.903062 5.629586,-2.903062 2.236142,0 4.138825,1.490762 1.922297,1.471146 1.922297,3.079599 0,2.000759 -1.647683,3.275753 -1.628069,1.274993 -4.099595,1.274993 -2.393064,0 -3.687673,-0.666919 -1.294609,-0.66692 -1.294609,-1.863452 0,-1.078841 0.804227,-1.765376 0.804227,-0.686535 1.686914,-0.686535 0.784612,0 1.412301,0.411921 0.647304,0.392306 0.647304,0.941534 0,0.588458 -0.451151,1.098456 -0.431537,0.509997 -0.843458,0.509997 -0.804226,0 -0.804226,-0.549228 0.921918,-0.254999 0.921918,-0.882688 0,-0.490382 -0.353075,-0.764996 -0.353075,-0.294229 -0.843457,-0.294229 -0.353075,0 -0.66692,0.588459 -0.313844,0.568843 -0.313844,1.176917 0,0.863072 1.216147,1.490761 1.235763,0.608074 2.981523,0.608074 1.490762,0 2.314604,-0.902303 0.823842,-0.902303 0.823842,-2.432295 0,-1.588838 -1.196533,-3.040369 -1.196532,-1.451531 -2.942292,-1.451531 -2.177297,0 -3.707289,2.45191 -1.529992,2.432295 -1.529992,6.610351 0,3.45229 1.74576,5.708047 1.765376,2.255758 4.334978,2.255758 1.196532,0 2.373449,-0.823842 1.196533,-0.843457 1.196533,-2.118451 0,-0.863072 -0.843458,-1.471146 -0.843457,-0.608074 -1.843836,-0.608074 -0.549228,0 -0.941534,0.353075 -0.392305,0.353075 -0.392305,0.843457 0,0.843458 1.000379,0.843458 0.294229,0 0.470767,-0.353075 0.176537,-0.372691 0.176537,-0.764997 z m 12.494933,0.392306 q -0.274614,1.333839 -1.098456,1.333839 -1.314224,0 -1.314224,-1.373069 0,-1.00038 0.823842,-1.745761 0.823842,-0.74538 1.863452,-0.74538 0.882687,0 1.549607,0.804226 0.66692,0.804227 0.66692,1.824222 0,1.961528 -1.922298,3.373828 -1.922298,1.392685 -3.78575,1.392685 -0.764996,0 -1.549607,-0.784611 -0.784612,-0.764996 -0.784612,-1.824221 0,-2.451911 0.706151,-6.551505 0.70615,-4.099594 1.000379,-8.218804 0.313845,-4.119209 0.313845,-11.906476 l -2.41268,0.07846 0.03923,-0.66692 q 3.687674,0 7.257655,-1.059225 v 0.686535 l -1.647684,0.529612 q -1.196532,9.709565 -1.765375,13.122625 -0.549228,3.393444 -1.686915,7.551884 -1.118071,4.15844 -1.118071,5.708047 0,0.823842 0.627689,1.74576 0.647305,0.902303 1.33384,0.902303 1.647683,0 2.804985,-1.019994 1.176917,-1.03961 1.176917,-2.74614 0,-0.627689 -0.392306,-1.137686 -0.37269,-0.509998 -0.980764,-0.509998 -1.549607,0 -1.549607,1.235763 0,0.451152 0.549228,0.451152 0.608074,0 1.03961,-0.529613 z m 15.260693,2.863831 q -2.118451,0.568844 -3.491521,0.568844 -3.275752,0 -5.53151,-2.883447 -2.255757,-2.883447 -2.255757,-6.728042 0,-3.530751 2.746139,-6.316121 2.74614,-2.804986 6.257276,-2.804986 1.608453,0 3.275752,1.019995 1.667299,1.000379 1.667299,2.393065 0,1.176917 -1.118071,2.255757 -1.098456,1.078841 -2.353834,1.078841 -1.118071,0 -2.000759,-0.588459 -0.882688,-0.608074 -0.882688,-1.569222 0,-0.902304 0.568844,-1.392686 0.568843,-0.509997 1.549607,-0.509997 0.568843,0 1.019995,0.294229 0.470767,0.274614 0.470767,0.725766 0,0.274614 -0.372691,0.568843 -0.353075,0.274614 -0.666919,0.274614 H 80.67311 q 0.196153,-0.647304 0.196153,-0.843457 0,-0.490382 -0.608074,-0.490382 -0.353075,0 -0.627689,0.411921 -0.254999,0.411921 -0.254999,0.823842 0,1.569222 1.451531,1.569222 0.980765,0 1.588838,-0.70615 0.627689,-0.725765 0.627689,-1.74576 0,-1.216148 -1.03961,-2.059605 -1.019994,-0.863072 -2.294988,-0.863072 -2.667678,0 -4.452669,2.765755 -1.784991,2.765754 -1.784991,5.864969 0,3.413059 1.392685,6.139584 1.392685,2.706909 3.668058,2.706909 1.784991,0 2.648063,-1.490762 z M 95.659186,50.10673 q -0.274614,0.451152 -0.686535,0.451152 -0.254998,0 -0.470766,-0.235384 -0.215768,-0.254999 -0.215768,-0.647304 0,-0.470767 0.431536,-0.784612 0.431536,-0.313844 0.941533,-0.313844 0.568844,0 1.059226,0.490382 0.509997,0.470767 0.509997,1.000379 0,1.255379 -0.70615,2.000759 -0.70615,0.725766 -1.824221,0.725766 -0.804227,0 -1.392686,-0.823842 -0.568843,-0.843457 -0.568843,-2.059605 0,-1.4123 1.235763,-2.589217 1.235763,-1.176917 2.530372,-1.176917 2.648063,0 4.844976,2.353834 2.19691,2.353834 2.19691,5.315742 0,3.668058 -2.53037,6.61035 -2.510758,2.942293 -5.394204,2.942293 -3.275752,0 -5.9042,-2.648064 -2.608833,-2.667678 -2.608833,-6.27689 0,-3.040369 2.393064,-5.786509 2.41268,-2.74614 5.688433,-3.49152 l 0.235383,0.490382 q -2.510756,0.451151 -4.15844,2.903062 -1.628069,2.45191 -1.628069,5.335357 0,3.942672 1.628069,6.414197 1.647684,2.451911 4.315362,2.451911 2.03999,0 3.746519,-2.491141 1.726146,-2.491141 1.726146,-5.825739 0,-3.177676 -1.490762,-5.335357 -1.490762,-2.177297 -3.628828,-2.177297 -1.157301,0 -1.922297,0.921918 -0.764996,0.902304 -0.764996,1.981144 0,0.686535 0.529612,1.196532 0.529613,0.490382 1.00038,0.490382 0.627689,0 1.255378,-0.470766 0.627689,-0.490382 0.627689,-0.941534 0,-0.961149 -1.078841,-0.961149 -0.451151,0 -0.451151,0.490382 0,0.215768 0.529612,0.470767 z m 24.636794,-1.078841 q 0.70615,-1.922297 2.05961,-3.216906 1.37307,-1.314224 2.78537,-1.314224 2.88344,0 4.43305,2.039989 1.56922,2.03999 1.56922,5.668817 0,4.609592 -1.68691,7.94419 -1.68692,3.334598 -3.82498,3.334598 -1.11807,0 -1.80461,-0.745381 -0.68653,-0.74538 -0.68653,-1.706529 0,-0.902303 0.56884,-1.608453 0.58846,-0.706151 1.39269,-0.706151 1.49076,0 1.49076,1.471147 0,0.333459 -0.33346,0.804226 -0.33346,0.451152 -0.78461,0.647305 l -0.33346,-0.274614 q 0.56884,-0.411921 0.56884,-0.882688 0,-0.490382 -0.72577,-0.490382 -1.03961,0 -1.03961,1.431915 0,0.608074 0.51,0.980765 0.51,0.353075 1.33384,0.353075 1.43192,0 2.21653,-2.37345 0.80422,-2.373449 0.80422,-6.904579 0,-3.216907 -1.27499,-5.296127 -1.27499,-2.098835 -3.55037,-2.098835 -1.4123,0 -2.45191,1.628068 -1.03961,1.628069 -1.03961,2.079221 l 0.0981,0.902303 q 0.0981,0.941533 0.0981,1.628068 0,4.060364 -1.275,6.688812 -1.25537,2.628448 -2.94229,2.628448 -0.76499,0 -1.43191,-0.529613 -0.64731,-0.549228 -0.64731,-1.392685 0,-0.941534 0.47077,-1.529992 0.49038,-0.608074 1.37307,-0.608074 0.60807,0 1.00038,0.353075 0.3923,0.33346 0.3923,0.725766 0,0.509997 -0.27461,0.941533 -0.27462,0.431536 -0.765,0.431536 l -0.23538,-0.274614 q 0.47077,-0.176537 0.47077,-0.451151 0,-0.392306 -0.84346,-0.392306 -0.23538,0 -0.47077,0.254999 -0.23538,0.254999 -0.23538,0.627689 0,0.529613 0.37269,0.882688 0.37269,0.353075 0.94153,0.353075 1.00038,0 1.54961,-1.784991 0.54923,-1.804606 0.54923,-6.767273 0,-1.981143 -1.25538,-3.766134 -1.25538,-1.784991 -2.96191,-1.784991 -0.88269,0 -1.74576,0.529613 -0.86307,0.509997 -1.52999,1.510377 -0.6473,1.000379 -0.66692,2.098835 l -0.11769,6.296506 q -0.0785,4.688053 -0.0785,5.354972 l 2.60883,-0.117692 v 0.961149 q -3.62883,0 -5.86497,0.647305 l -0.255,-0.843457 2.58922,-0.529613 q 0,-8.9838 -2.13807,-16.574914 l -2.60883,0.274613 -0.0392,-0.843457 q 3.25614,-0.07846 6.33574,-1.03961 -0.27462,0.745381 -0.47077,4.609592 0.43154,-1.274994 1.9223,-2.451911 1.51037,-1.196532 3.02075,-1.196532 1.68692,0 3.02075,0.921918 1.35346,0.902304 1.84384,2.491141 z m 24.7741,10.043025 q 0.92192,0 0.92192,0.882688 0,0.568843 -0.50999,0.980764 -0.49039,0.392306 -0.94154,0.392306 -0.56884,0 -1.17692,-0.549228 -0.58845,-0.549228 -0.58845,-1.353454 0,-1.118072 0.72576,-1.745761 0.72577,-0.647304 1.80461,-0.647304 1.29461,0 2.15768,0.921918 0.86307,0.902303 0.86307,2.314604 0,1.667299 -1.47115,2.648063 -1.45153,0.980764 -3.19729,0.980764 -3.17767,0 -5.9042,-2.628448 -2.72652,-2.648063 -2.72652,-6.414197 0,-3.550367 2.64806,-6.453429 2.64807,-2.903062 5.62959,-2.903062 2.23614,0 4.13882,1.490762 1.9223,1.471146 1.9223,3.079599 0,2.000759 -1.64768,3.275753 -1.62807,1.274993 -4.0996,1.274993 -2.39306,0 -3.68767,-0.666919 -1.29461,-0.66692 -1.29461,-1.863452 0,-1.078841 0.80423,-1.765376 0.80422,-0.686535 1.68691,-0.686535 0.78461,0 1.4123,0.411921 0.64731,0.392306 0.64731,0.941534 0,0.588458 -0.45115,1.098456 -0.43154,0.509997 -0.84346,0.509997 -0.80423,0 -0.80423,-0.549228 0.92192,-0.254999 0.92192,-0.882688 0,-0.490382 -0.35308,-0.764996 -0.35307,-0.294229 -0.84345,-0.294229 -0.35308,0 -0.66692,0.588459 -0.31385,0.568843 -0.31385,1.176917 0,0.863072 1.21615,1.490761 1.23576,0.608074 2.98152,0.608074 1.49077,0 2.31461,-0.902303 0.82384,-0.902303 0.82384,-2.432295 0,-1.588838 -1.19653,-3.040369 -1.19654,-1.451531 -2.9423,-1.451531 -2.17729,0 -3.70728,2.45191 -1.53,2.432295 -1.53,6.610351 0,3.45229 1.74576,5.708047 1.76538,2.255758 4.33498,2.255758 1.19653,0 2.37345,-0.823842 1.19653,-0.843457 1.19653,-2.118451 0,-0.863072 -0.84345,-1.471146 -0.84346,-0.608074 -1.84384,-0.608074 -0.54923,0 -0.94153,0.353075 -0.39231,0.353075 -0.39231,0.843457 0,0.843458 1.00038,0.843458 0.29423,0 0.47077,-0.353075 0.17653,-0.372691 0.17653,-0.764997 z m 29.52101,-14.672231 q -1.60845,0.294229 -2.66768,0.431536 -1.03961,0.117692 -3.04037,0.745381 -0.0981,1.255378 -1.1573,6.178814 -1.05922,4.903821 -1.05922,6.629966 0,2.236142 0.9023,3.432674 0.92192,1.196532 2.58922,1.196532 1.21614,0 1.86345,-1.07884 0.66692,-1.098456 0.66692,-2.824601 0,-0.66692 -0.47077,-1.37307 -0.47077,-0.70615 -1.03961,-0.70615 -0.51,0 -0.82384,0.490382 -0.31384,0.490382 -0.31384,1.137687 0,0.568843 0.52961,0.568843 0.52961,0 0.76499,-0.843457 l 0.23539,0.156922 q 0,0.608074 -0.35308,1.019995 -0.33346,0.392305 -0.72576,0.392305 -0.64731,0 -1.23577,-0.411921 -0.56884,-0.431536 -0.56884,-1.07884 0,-0.843457 0.72577,-1.490762 0.74538,-0.666919 1.58883,-0.666919 1.07884,0 2.13807,0.74538 1.07884,0.745381 1.07884,1.569223 0,1.863452 -1.13769,3.45229 -1.13768,1.569222 -2.62844,1.569222 -2.27538,0 -3.62883,-1.4123 -1.35346,-1.431916 -1.35346,-3.766134 0,-1.157302 0.45116,-6.218045 0.47076,-5.080358 0.43153,-5.9042 l -3.62883,1.03961 v -1.078841 l 3.62883,-0.843457 q 0.0392,-0.588459 0.0392,-1.37307 0,-2.334219 -0.33346,-4.53113 l 3.37383,-0.568844 q 0.0589,2.451911 -0.47077,5.668817 2.45191,-0.784611 3.31499,-0.941533 0.86307,-0.176538 2.02037,-0.509998 z m 9.98417,5.708047 q -0.27461,0.451152 -0.68653,0.451152 -0.255,0 -0.47077,-0.235384 -0.21577,-0.254999 -0.21577,-0.647304 0,-0.470767 0.43154,-0.784612 0.43154,-0.313844 0.94153,-0.313844 0.56885,0 1.05923,0.490382 0.51,0.470767 0.51,1.000379 0,1.255379 -0.70615,2.000759 -0.70615,0.725766 -1.82423,0.725766 -0.80422,0 -1.39268,-0.823842 -0.56884,-0.843457 -0.56884,-2.059605 0,-1.4123 1.23576,-2.589217 1.23576,-1.176917 2.53037,-1.176917 2.64806,0 4.84498,2.353834 2.19691,2.353834 2.19691,5.315742 0,3.668058 -2.53037,6.61035 -2.51076,2.942293 -5.39421,2.942293 -3.27575,0 -5.9042,-2.648064 -2.60883,-2.667678 -2.60883,-6.27689 0,-3.040369 2.39306,-5.786509 2.41268,-2.74614 5.68844,-3.49152 l 0.23538,0.490382 q -2.51076,0.451151 -4.15844,2.903062 -1.62807,2.45191 -1.62807,5.335357 0,3.942672 1.62807,6.414197 1.64768,2.451911 4.31536,2.451911 2.03999,0 3.74652,-2.491141 1.72615,-2.491141 1.72615,-5.825739 0,-3.177676 -1.49077,-5.335357 -1.49076,-2.177297 -3.62882,-2.177297 -1.1573,0 -1.9223,0.921918 -0.765,0.902304 -0.765,1.981144 0,0.686535 0.52962,1.196532 0.52961,0.490382 1.00038,0.490382 0.62768,0 1.25537,-0.470766 0.62769,-0.490382 0.62769,-0.941534 0,-0.961149 -1.07884,-0.961149 -0.45115,0 -0.45115,0.490382 0,0.215768 0.52961,0.470767 z"
         id="path2" />
      <path
         style="font-family:'Curlz MT';-inkscape-font-specification:'Curlz MT';text-align:center;text-anchor:middle"
         d="m 16.491901,94.689653 q -1.608453,0.294229 -2.667678,0.431536 -1.03961,0.117692 -3.040369,0.745381 -0.09808,1.255378 -1.1573021,6.17881 -1.0592253,4.90383 -1.0592253,6.62997 0,2.23614 0.902303,3.43267 0.9219184,1.19654 2.5892174,1.19654 1.216148,0 1.863452,-1.07884 0.66692,-1.09846 0.66692,-2.8246 0,-0.66692 -0.470767,-1.37307 -0.470767,-0.70615 -1.03961,-0.70615 -0.509998,0 -0.823842,0.49038 -0.313845,0.49038 -0.313845,1.13768 0,0.56885 0.529613,0.56885 0.529613,0 0.764996,-0.84346 l 0.235383,0.15692 q 0,0.60808 -0.353075,1.02 -0.333459,0.3923 -0.725765,0.3923 -0.647305,0 -1.235763,-0.41192 -0.568843,-0.43153 -0.568843,-1.07884 0,-0.84346 0.725765,-1.49076 0.745381,-0.66692 1.588838,-0.66692 1.078841,0 2.138066,0.74538 1.078841,0.74538 1.078841,1.56922 0,1.86346 -1.137687,3.45229 -1.137686,1.56923 -2.628448,1.56923 -2.275373,0 -3.6288271,-1.4123 -1.3534546,-1.43192 -1.3534546,-3.76614 0,-1.1573 0.4511516,-6.21804 0.4707668,-5.080362 0.4315362,-5.904204 l -3.6288274,1.03961 v -1.07884 l 3.6288274,-0.843458 q 0.039231,-0.588458 0.039231,-1.373069 0,-2.334219 -0.3334599,-4.531131 l 3.3738288,-0.568843 q 0.05885,2.45191 -0.470767,5.668817 2.45191,-0.784612 3.314983,-0.941534 0.863072,-0.176537 2.020374,-0.509997 z m 14.613386,18.046057 q -1.059225,0.0785 -1.059225,-0.98076 0,-0.51 0.529612,-0.96115 0.529613,-0.47077 1.098456,-0.47077 0.392306,0 1.157302,0.33346 0.764996,0.33346 0.764996,1.275 0,1.6673 -1.00038,2.80498 -0.980764,1.13769 -2.255757,1.13769 -0.843457,0 -1.686915,-1.03961 -0.843457,-1.02 -0.843457,-2.09884 0,-1.64768 1.03961,-4.2369 1.03961,-2.58921 1.03961,-4.51151 0,-6.355354 -4.727283,-6.355354 -1.628068,0 -3.001138,1.647683 -1.353455,1.647681 -1.353455,2.569601 0.156922,6.06112 0.33346,12.12225 1.098456,-0.0589 2.922677,-0.0392 l -0.07846,1.05922 q -1.098456,-0.11769 -2.78537,-0.11769 -2.74614,0 -4.276132,0.27461 l -0.03923,-0.92191 q 1.941913,0 3.256137,-0.15693 0.117691,-3.62882 -1.03961,-13.43647 -1.137687,-9.827253 -2.471526,-15.5353 -0.843457,0.137307 -2.765755,0.235383 l -0.03923,-0.804227 q 2.667679,-0.01962 8.199189,-1.07884 l 0.03923,0.764996 q -1.451531,0.294229 -2.334218,0.431536 0.294229,2.255758 0.529612,6.786888 l 0.470767,8.768034 q 0.863072,-1.883069 2.432295,-3.001141 1.569223,-1.137686 3.236522,-1.137686 2.628448,0 4.315362,1.902682 1.70653,1.883068 1.70653,4.079975 0,2.92268 -2.451911,6.53189 -0.725765,1.07884 -1.059225,1.80461 -0.313844,0.70615 -0.313844,1.70653 0,1.29461 0.980764,1.82422 1.000379,0.54923 1.726145,0.54923 0.647304,0 1.000379,-0.43154 0.372691,-0.43153 0.372691,-1.11807 0,-0.70615 -0.372691,-1.33384 -0.353075,-0.6473 -0.804226,-0.6473 -0.568844,0 -0.568844,1.09845 0,0.52962 0.176538,0.70615 z m 15.182227,-3.37383 q 0.921919,0 0.921919,0.88269 0,0.56885 -0.509998,0.98077 -0.490382,0.3923 -0.941533,0.3923 -0.568844,0 -1.176917,-0.54923 -0.588459,-0.54922 -0.588459,-1.35345 0,-1.11807 0.725766,-1.74576 0.725765,-0.6473 1.804606,-0.6473 1.294608,0 2.157681,0.92191 0.863072,0.90231 0.863072,2.31461 0,1.6673 -1.471146,2.64806 -1.451531,0.98076 -3.197291,0.98076 -3.177676,0 -5.9042,-2.62844 -2.726525,-2.64807 -2.726525,-6.4142 0,-3.55037 2.648063,-6.453429 2.648064,-2.903062 5.629587,-2.903062 2.236142,0 4.138824,1.490762 1.922298,1.471146 1.922298,3.079599 0,2.00076 -1.647684,3.27575 -1.628068,1.275 -4.099594,1.275 -2.393064,0 -3.687673,-0.66692 -1.294609,-0.66692 -1.294609,-1.86346 0,-1.07884 0.804227,-1.76537 0.804227,-0.686536 1.686914,-0.686536 0.784612,0 1.412301,0.411916 0.647304,0.39231 0.647304,0.94154 0,0.58846 -0.451151,1.09845 -0.431537,0.51 -0.843458,0.51 -0.804226,0 -0.804226,-0.54923 0.921918,-0.255 0.921918,-0.88268 0,-0.49039 -0.353075,-0.765 -0.353075,-0.29423 -0.843457,-0.29423 -0.353075,0 -0.66692,0.58846 -0.313844,0.56884 -0.313844,1.17692 0,0.86307 1.216147,1.49076 1.235763,0.60807 2.981523,0.60807 1.490762,0 2.314604,-0.9023 0.823842,-0.9023 0.823842,-2.4323 0,-1.588835 -1.196533,-3.040366 -1.196532,-1.451531 -2.942292,-1.451531 -2.177297,0 -3.707289,2.451911 -1.529992,2.432296 -1.529992,6.610346 0,3.45229 1.74576,5.70805 1.765376,2.25576 4.334978,2.25576 1.196532,0 2.373449,-0.82384 1.196532,-0.84346 1.196532,-2.11845 0,-0.86308 -0.843457,-1.47115 -0.843457,-0.60807 -1.843836,-0.60807 -0.549228,0 -0.941534,0.35307 -0.392306,0.35308 -0.392306,0.84346 0,0.84346 1.00038,0.84346 0.294229,0 0.470767,-0.35308 0.176537,-0.37269 0.176537,-0.765 z m 38.465572,5.09998 q 0.941534,0.0588 0.941534,0.51 0,0.52961 -0.588459,1.05922 -0.588458,0.52961 -1.235762,0.52961 -0.764997,0 -1.471147,-0.47076 -0.686535,-0.47077 -0.686535,-1.09846 0,-0.9023 0.863073,-1.72614 0.863072,-0.84346 1.824221,-0.84346 1.549608,0 2.589218,0.80423 1.059225,0.80422 1.059225,1.96152 0,1.35346 -1.431916,2.54999 -1.431916,1.21615 -3.432674,1.21615 -1.883068,0 -3.040369,-1.13769 -1.137687,-1.11807 -1.137687,-2.90306 0,-1.00038 0.33346,-3.17768 0.353075,-2.19691 0.353075,-4.47228 0,-6.02189 -7.100732,-6.02189 l -0.07846,-0.58846 q 6.453428,-1.628069 6.453428,-7.159579 0,-2.216527 -1.941913,-3.609212 -1.941913,-1.412301 -4.315363,-1.412301 -0.823842,0 -1.922297,0.117692 -0.490382,5.335357 -0.490382,15.94723 0,1.01999 0.117691,7.04188 1.686915,0 3.981903,-0.72576 v 1.07884 q -2.216527,0.49038 -4.413439,0.49038 -1.019995,0 -4.021133,0.3923 v -1.11807 l 3.49152,-0.0785 Q 68.02125,96.435413 67.648559,88.92276 l -2.903062,0.470767 v -0.921919 q 6.002277,-0.882687 8.924954,-0.882687 3.628828,0 6.021892,1.706529 2.41268,1.70653 2.41268,3.668058 0,1.941913 -1.863452,4.060364 -1.843837,2.11845 -5.158819,3.452288 3.550366,0.45115 5.296126,1.64769 1.765376,1.19653 1.765376,3.82498 0,1.45153 -1.098456,4.39382 -1.098456,2.94229 -1.098456,4.72728 0,1.45153 0.921918,2.35384 0.921918,0.9023 2.530372,0.9023 1.37307,0 2.294988,-0.86307 0.921918,-0.84346 0.921918,-1.9223 0,-2.53037 -2.177296,-2.53037 -0.451152,0 -0.863073,0.43153 -0.392305,0.43154 -0.392305,0.98077 0,0.62769 0.274614,1.03961 0.294229,0.41192 0.666919,0.41192 0.66692,0 0.627689,-1.4123 z m 28.795234,-1.33384 q -1.78499,0.86307 -4.92344,1.13769 -1.31422,-5.72767 -1.60845,-11.84764 -0.82384,0.0785 -2.66768,0.0785 -3.11883,0 -5.374587,-0.37269 -1.059226,5.53151 -3.059985,8.4738 -1.981143,2.94229 -4.688052,2.94229 -1.353455,0 -2.41268,-1.27499 -1.03961,-1.29461 -1.03961,-2.74614 0,-1.17692 0.941534,-2.53037 0.941533,-1.37307 2.020374,-1.37307 0.568843,0 1.137686,0.62768 0.588459,0.60808 0.588459,1.19654 0,0.68653 -0.411921,1.43191 -0.411921,0.72577 -0.980765,0.72577 -0.07846,0 -0.294229,-0.11769 0.568843,-0.43154 0.568843,-1.07884 0,-0.41192 -0.294229,-0.80423 -0.294229,-0.41192 -0.666919,-0.41192 -1.843837,0 -1.843837,1.64768 0,1.51038 0.823842,2.23614 0.823842,0.70615 2.78537,0.70615 2.804986,0 3.883826,-3.27575 1.098456,-3.29537 1.098456,-6.8065 -6.590735,-1.49076 -6.590735,-4.511516 0,-0.863072 0.529612,-1.569223 0.549228,-0.70615 1.314224,-0.70615 h 0.411921 q -0.686534,0.823842 -0.686534,1.883067 0,1.490762 1.333839,2.589218 1.333839,1.098454 3.648442,1.628064 -0.117691,-1.510372 -0.117691,-3.020749 0,-3.020754 0.764996,-4.982282 0.764996,-1.981144 2.5696,-3.511136 1.80461,-1.549607 4.06037,-2.294988 2.25575,-0.764996 4.60959,-0.764996 1.4123,0 1.64768,0.03923 -1.72614,8.042267 -1.9223,14.260311 0.35308,-0.0785 1.07884,-0.33346 l 0.0785,1.72615 q -0.84345,0.0785 -1.1573,0.11769 v 1.4123 q 0,6.23766 0.765,9.43495 1.45153,-0.0392 3.84459,-1.00038 z m -5.9042,-25.735252 q -3.35422,-0.117692 -5.53151,2.236142 -2.157683,2.353834 -2.785372,9.846872 -0.09808,1.314228 -0.196153,1.883068 1.628065,0.17654 2.569605,0.17654 2.09883,0 5.23728,-0.45115 -0.0981,-2.334223 -0.0981,-3.648447 0,-5.335357 0.80423,-10.043025 z m 23.42065,19.164132 q 0.72577,0 0.72577,0.96115 0,0.45115 -0.62769,0.80422 -0.60808,0.35308 -1.21615,0.35308 -0.765,0 -1.39269,-0.74538 -0.60807,-0.765 -0.60807,-1.17692 0,-1.25538 1.05923,-2.29499 1.05922,-1.03961 2.09883,-1.03961 0.98077,0 2.02038,0.96115 1.03961,0.96115 1.03961,2.60884 0,2.21652 -2.03999,4.33497 -2.03999,2.09884 -5.09998,2.09884 -0.86307,0 -3.86421,-0.31385 -2.98152,-0.33346 -4.70767,-0.33346 -3.00113,0 -4.06036,0.56885 l -0.23538,-0.49038 q 6.86535,-7.98342 9.68995,-12.946092 2.8246,-4.962666 5.53151,-11.631863 -4.51152,2.118451 -11.12187,2.118451 -0.29423,2.726524 -0.68653,4.589976 l -1.15731,-0.117691 q 0.92192,-3.334598 0.92192,-4.903821 0,-1.353455 -0.31384,-3.78575 0.0981,-0.01962 0.88269,-0.117692 l 0.35307,2.255758 q 1.31422,0.03923 2.47153,0.03923 4.11921,0 6.96342,-0.549228 2.86383,-0.568844 3.47191,-1.33384 0.27461,0.411921 1.35345,1.274994 -1.72614,3.687673 -3.94267,7.708806 -2.21653,4.001518 -4.15844,6.453432 -1.9223,2.43229 -4.94305,5.92381 -3.00114,3.49152 -3.37383,4.02114 0.94153,-0.47077 2.86383,-0.80423 1.9223,-0.35308 3.27575,-0.35308 0.82384,0 3.37383,0.54923 2.54999,0.52961 4.25652,0.52961 1.17692,0 2.11845,-1.25537 0.94153,-1.275 0.94153,-2.64807 0,-0.96115 -0.76499,-1.98114 -0.765,-1.01999 -1.60846,-1.01999 -0.96115,0 -1.49076,0.47076 -0.52961,0.47077 -0.52961,0.96115 0,1.4123 1.56922,1.4123 0.27462,0 0.60808,-0.3923 0.35307,-0.39231 0.35307,-0.765 z m 30.89407,2.11845 q 0.29423,-0.31384 0.66692,-0.31384 0.80423,0 0.80423,1.35345 0,0.51 -0.60808,1.17692 -0.58845,0.6473 -1.1573,0.6473 -0.92192,0 -1.52999,-0.72576 -0.58846,-0.72577 -0.58846,-2.02038 0,-1.00038 0.68654,-1.78499 0.68653,-0.78461 1.47114,-0.78461 1.31423,0 2.49114,1.49076 1.17692,1.47115 1.17692,3.29537 0,3.60921 -3.90344,3.60921 -1.58884,0 -4.64882,-0.62769 -3.05999,-0.60807 -4.66844,-0.60807 -1.49076,0 -3.94267,0.27461 l 0.0785,-0.92192 3.41306,-0.15692 q 0.21577,-1.54961 0.21577,-7.9638 0,-7.277274 -1.21615,-15.69223 -1.11807,0 -3.25614,0.117692 l 0.0785,-1.059226 q 2.51076,0.09808 4.80575,0.09808 1.90268,0 4.2369,-0.372691 v 1.118071 h -2.84422 q 0.23539,4.609592 0.23539,8.159958 0,5.904196 -1.15731,15.476456 1.07884,0 3.94268,0.255 2.86383,0.255 3.84459,0.255 1.60845,0 2.78537,-0.70615 1.19653,-0.72577 1.19653,-1.70653 0,-1.23577 -0.50999,-2.05961 -0.51,-0.82384 -1.43192,-0.82384 -1.05922,0 -1.82422,0.43154 -0.74538,0.43153 -0.74538,1.21614 0,0.74539 0.35307,0.94154 0.37269,0.17654 1.17692,0.17654 1.17692,0 1.17692,-0.72577 0,-0.45115 -0.80423,-1.03961 z m 10.04303,-7.94419 q -0.13731,0.80423 -0.92192,0.80423 -0.43153,0 -0.70615,-0.29423 -0.27461,-0.31385 -0.27461,-0.80423 0,-0.568842 0.49038,-1.059224 0.51,-0.509998 1.07884,-0.509998 2.64806,0 2.64806,1.529992 0,1.27499 -1.35345,2.35383 -1.35346,1.05923 -2.33422,1.05923 -1.1573,0 -1.96153,-0.6473 -0.80422,-0.66692 -0.80422,-1.76538 0,-2.275373 2.13806,-4.629207 2.13807,-2.353834 4.45267,-2.353834 1.90268,0 3.19729,1.647684 1.29461,1.628068 1.29461,4.021137 0,1.70653 -0.49038,2.92267 -0.47077,1.21615 -1.45153,2.86383 -2.51076,4.15844 -2.51076,7.63035 0,0.39231 0.0392,0.80423 h -0.80422 l 0.0392,-2.60884 q -2.45191,1.60846 -3.53075,1.60846 -1.33384,0 -2.19692,-0.80423 -0.86307,-0.82384 -0.86307,-2.13807 0,-1.23576 1.27499,-2.17729 1.29461,-0.96115 2.86384,-0.96115 1.11807,0 3.56998,-0.23538 1.45153,-3.15806 1.45153,-5.62959 0,-5.688433 -2.60883,-5.688433 -2.39307,0 -3.43268,1.549608 -1.03961,1.529992 -1.03961,4.236905 0,0.74538 0.43154,1.27499 0.45115,0.52961 1.09845,0.52961 0.80423,0 1.53,-0.74538 0.72576,-0.74538 0.72576,-1.62807 0,-0.49038 -0.45115,-0.84345 -0.45115,-0.372695 -1.00038,-0.372695 -0.23538,0 -0.43154,0.235383 -0.17653,0.235382 -0.17653,0.490382 0,0.49038 0.41192,0.49038 0.33346,0 0.60807,-0.15692 z m 2.60883,6.94381 q -1.64768,0.0981 -2.66768,0.27461 -1.00037,0.15693 -1.62806,0.92192 -0.60808,0.74538 -0.60808,1.56923 0,0.78461 0.41192,1.2946 0.43154,0.51 1.11807,0.51 1.19654,0 2.6873,-1.51038 z m 13.61301,-5.17843 q -1.00038,-0.0392 -1.00038,-0.84346 0,-0.56884 0.41192,-1.00038 0.41192,-0.45115 0.94154,-0.45115 0.62769,0 1.09845,0.58846 0.47077,0.56884 0.47077,1.37307 0,1.05922 -0.70615,1.6673 -0.70615,0.58845 -1.58884,0.58845 -1.01999,0 -1.72614,-0.76499 -0.68654,-0.765 -0.68654,-1.96153 0,-1.726146 1.51038,-3.177677 1.51038,-1.451531 3.27575,-1.451531 2.49114,0 4.51152,2.37345 2.03999,2.353838 2.03999,5.060738 0,3.51114 -2.58922,6.31613 -2.5696,2.80498 -5.6492,2.80498 -1.88307,0 -3.51114,-1.25538 -1.60845,-1.27499 -1.90268,-3.15806 -0.98077,1.6673 -1.82422,2.37345 l -0.62769,-0.37269 q 0.72576,-0.72576 1.27499,-1.64768 0.54923,-0.92192 0.80423,-1.74576 0.255,-0.84346 0.58846,-3.70729 0.35307,-2.86383 0.6473,-6.983042 0.29423,-4.138825 0.29423,-8.258034 0,-1.451531 -0.15692,-4.001518 l -2.37345,0.117692 0.0392,-0.725766 q 3.55037,0 7.15958,-1.294608 l 0.11769,0.686535 -1.64768,0.529612 q -0.74538,6.159199 -2.13807,13.377623 -1.39269,7.198806 -1.39269,9.238796 0,2.70691 1.37307,4.3546 1.39269,1.62806 3.35422,1.62806 2.21653,0 3.84459,-2.47152 1.62807,-2.49114 1.62807,-5.57074 0,-2.47153 -1.33384,-4.58998 -1.33384,-2.118449 -3.04037,-2.118449 -1.4123,0 -2.53037,1.03961 -1.09845,1.019999 -1.09845,2.471529 0,0.58846 0.56884,1.13768 0.58846,0.54923 1.19653,0.54923 0.56885,0 1.09846,-0.35307 0.54923,-0.37269 0.54923,-0.78462 0,-0.76499 -1.07884,-0.76499 -0.41193,0 -0.41193,0.45115 0,0.15692 0.21577,0.72577 z"
         id="path3" />
    </g>
    <g
       gcodetools="Gcodetools tool definition"
       transform="translate(-115.272,299.532)"
       id="g78">
      <path
         gcodetools="Gcodetools tool background"
         style="fill:#00ff00;fill-opacity:0.5;stroke:#444444"
         d="M -20,-20 H 380 V 155 H -20 Z"
         id="path62" />
      <g
         gcodetools="Gcodetools tool parameter"
         id="g63">
        <text
           x="0"
           y="0"
           style="font-style:normal;font-variant:normal;font-weight:normal;font-stretch:normal;font-size:20px;font-family:'DejaVu Sans';fill:#000000;fill-opacity:1;stroke:none"
           gcodetools="Gcodetools tool definition field name"
           xml:space="preserve"
           id="text62"><tspan
             x="0"
             y="0"
             sodipodi:role="line"
             id="tspan62">name</tspan></text>
        <text
           x="150"
           y="0"
           style="font-style:normal;font-variant:normal;font-weight:normal;font-stretch:normal;font-size:20px;font-family:'DejaVu Sans';fill:#000000;fill-opacity:1;stroke:none"
           gcodetools="Gcodetools tool definition field value"
           xml:space="preserve"
           id="text63"><tspan
             x="150"
             y="0"
             sodipodi:role="line"
             id="tspan63">Cone cutter</tspan></text>
      </g>
      <g
         gcodetools="Gcodetools tool parameter"
         id="g65">
        <text
           x="0"
           y="20"
           style="font-style:normal;font-variant:normal;font-weight:normal;font-stretch:normal;font-size:10px;font-family:'DejaVu Sans';fill:#000000;fill-opacity:1;stroke:none"
           gcodetools="Gcodetools tool definition field name"
           xml:space="preserve"
           id="text64"><tspan
             x="0"
             y="20"
             sodipodi:role="line"
             id="tspan64">id</tspan></text>
        <text
           x="150"
           y="20"
           style="font-style:normal;font-variant:normal;font-weight:normal;font-stretch:normal;font-size:10px;font-family:'DejaVu Sans';fill:#000000;fill-opacity:1;stroke:none"
           gcodetools="Gcodetools tool definition field value"
           xml:space="preserve"
           id="text65"><tspan
             x="150"
             y="20"
             sodipodi:role="line"
             id="tspan65">Cone cutter 0001</tspan></text>
      </g>
      <g
         gcodetools="Gcodetools tool parameter"
         id="g67">
        <text
           x="0"
           y="35"
           style="font-style:normal;font-variant:normal;font-weight:normal;font-stretch:normal;font-size:10px;font-family:'DejaVu Sans';fill:#000000;fill-opacity:1;stroke:none"
           gcodetools="Gcodetools tool definition field name"
           xml:space="preserve"
           id="text66"><tspan
             x="0"
             y="35"
             sodipodi:role="line"
             id="tspan66">diameter</tspan></text>
        <text
           x="150"
           y="35"
           style="font-style:normal;font-variant:normal;font-weight:normal;font-stretch:normal;font-size:10px;font-family:'DejaVu Sans';fill:#000000;fill-opacity:1;stroke:none"
           gcodetools="Gcodetools tool definition field value"
           xml:space="preserve"
           id="text67"><tspan
             x="150"
             y="35"
             sodipodi:role="line"
             id="tspan67">2</tspan></text>
      </g>
      <g
         gcodetools="Gcodetools tool parameter"
         id="g69">
        <text
           x="0"
           y="50"
           style="font-style:normal;font-variant:normal;font-weight:normal;font-stretch:normal;font-size:10px;font-family:'DejaVu Sans';fill:#000000;fill-opacity:1;stroke:none"
           gcodetools="Gcodetools tool definition field name"
           xml:space="preserve"
           id="text68"><tspan
             x="0"
             y="50"
             sodipodi:role="line"
             id="tspan68">feed</tspan></text>
        <text
           x="150"
           y="50"
           style="font-style:normal;font-variant:normal;font-weight:normal;font-stretch:normal;font-size:10px;font-family:'DejaVu Sans';fill:#000000;fill-opacity:1;stroke:none"
           gcodetools="Gcodetools tool definition field value"
           xml:space="preserve"
           id="text69"><tspan
             x="150"
             y="50"
             sodipodi:role="line"
             id="tspan69">40</tspan></text>
      </g>
      <g
         gcodetools="Gcodetools tool parameter"
         id="g71">
        <text
           x="0"
           y="65"
           style="font-style:normal;font-variant:normal;font-weight:normal;font-stretch:normal;font-size:10px;font-family:'DejaVu Sans';fill:#000000;fill-opacity:1;stroke:none"
           gcodetools="Gcodetools tool definition field name"
           xml:space="preserve"
           id="text70"><tspan
             x="0"
             y="65"
             sodipodi:role="line"
             id="tspan70">shape</tspan></text>
        <text
           x="150"
           y="65"
           style="font-style:normal;font-variant:normal;font-weight:normal;font-stretch:normal;font-size:10px;font-family:'DejaVu Sans';fill:#000000;fill-opacity:1;stroke:none"
           gcodetools="Gcodetools tool definition field value"
           xml:space="preserve"
           id="text71"><tspan
             x="150"
             y="65"
             sodipodi:role="line"
             id="tspan71">w</tspan></text>
      </g>
      <g
         gcodetools="Gcodetools tool parameter"
         id="g73">
        <text
           x="0"
           y="80"
           style="font-style:normal;font-variant:normal;font-weight:normal;font-stretch:normal;font-size:10px;font-family:'DejaVu Sans';fill:#000000;fill-opacity:1;stroke:none"
           gcodetools="Gcodetools tool definition field name"
           xml:space="preserve"
           id="text72"><tspan
             x="0"
             y="80"
             sodipodi:role="line"
             id="tspan72">penetration feed</tspan></text>
        <text
           x="150"
           y="80"
           style="font-style:normal;font-variant:normal;font-weight:normal;font-stretch:normal;font-size:10px;font-family:'DejaVu Sans';fill:#000000;fill-opacity:1;stroke:none"
           gcodetools="Gcodetools tool definition field value"
           xml:space="preserve"
           id="text73"><tspan
             x="150"
             y="80"
             sodipodi:role="line"
             id="tspan73">100</tspan></text>
      </g>
      <g
         gcodetools="Gcodetools tool parameter"
         id="g75">
        <text
           x="0"
           y="95"
           style="font-style:normal;font-variant:normal;font-weight:normal;font-stretch:normal;font-size:10px;font-family:'DejaVu Sans';fill:#000000;fill-opacity:1;stroke:none"
           gcodetools="Gcodetools tool definition field name"
           xml:space="preserve"
           id="text74"><tspan
             x="0"
             y="95"
             sodipodi:role="line"
             id="tspan74">depth step</tspan></text>
        <text
           x="150"
           y="95"
           style="font-style:normal;font-variant:normal;font-weight:normal;font-stretch:normal;font-size:10px;font-family:'DejaVu Sans';fill:#000000;fill-opacity:1;stroke:none"
           gcodetools="Gcodetools tool definition field value"
           xml:space="preserve"
           id="text75"><tspan
             x="150"
             y="95"
             sodipodi:role="line"
             id="tspan75">10</tspan></text>
      </g>
      <g
         gcodetools="Gcodetools tool parameter"
         id="g77">
        <text
           x="0"
           y="110"
           style="font-style:normal;font-variant:normal;font-weight:normal;font-stretch:normal;font-size:10px;font-family:'DejaVu Sans';fill:#000000;fill-opacity:1;stroke:none"
           gcodetools="Gcodetools tool definition field name"
           xml:space="preserve"
           id="text76"><tspan
             x="0"
             y="110"
             sodipodi:role="line"
             id="tspan76">tool change gcode</tspan></text>
        <text
           x="150"
           y="110"
           style="font-style:normal;font-variant:normal;font-weight:normal;font-stretch:normal;font-size:10px;font-family:'DejaVu Sans';fill:#000000;fill-opacity:1;stroke:none"
           gcodetools="Gcodetools tool definition field value"
           xml:space="preserve"
           id="text77"><tspan
             x="150"
             y="110"
             sodipodi:role="line"
             id="tspan77">(None)</tspan></text>
      </g>
    </g>
    <g
       gcodetools="Preview group"
       id="g1648" />
    <g
       gcodetools="Preview group"
       id="g1649" />
    <g
       gcodetools="Preview group"
       id="g1650" />
    <g
       gcodetools="Preview group"
       id="g1651" />
    <g
       gcodetools="Preview group"
       id="g1652" />
    <g
       gcodetools="Preview group"
       id="g1653" />
    <g
       gcodetools="Preview group"
       id="g1654" />
    <g
       gcodetools="Preview group"
       id="g1655" />
    <g
       gcodetools="Preview group"
       id="g1656" />
    <g
       gcodetools="Preview group"
       id="g1657" />
    <g
       gcodetools="Preview group"
       id="g1658" />
    <g
       gcodetools="Preview group"
       id="g1659" />
    <g
       gcodetools="Preview group"
       id="g1660" />
    <g
       gcodetools="Preview group"
       id="g1661" />
    <g
       gcodetools="Preview group"
       id="g1662" />
    <g
       gcodetools="Preview group"
       id="g1663" />
    <g
       gcodetools="Preview group"
       id="g1664" />
    <g
       gcodetools="Preview group"
       id="g1665" />
    <g
       gcodetools="Preview group"
       id="g1666" />
    <g
       gcodetools="Gcodetools orientation group"
       id="g1669">
      <g
         gcodetools="Gcodetools orientation point (2 points)"
         id="g1667">
        <path
           style="fill:#000000;stroke:none"
           gcodetools="Gcodetools orientation point arrow"
           d="m 0,165.1 2.9375,-6.34375 0.8125,1.90625 6.84375,-6.84375 v 0 l 0.6875,0.6875 -6.84375,6.84375 1.90625,0.8125 z"
           id="path1667" />
        <text
           x="10"
           y="155.10001"
           style="font-style:normal;font-variant:normal;font-weight:normal;font-stretch:normal;font-size:10px;font-family:'DejaVu Sans';fill:#000000;fill-opacity:1;stroke:none"
           gcodetools="Gcodetools orientation point text"
           xml:space="preserve"
           id="text1667"><tspan
             x="10"
             y="155.10001"
             sodipodi:role="line"
             id="tspan1667">(0.0; 0.0; .1230)</tspan></text>
      </g>
      <g
         gcodetools="Gcodetools orientation point (2 points)"
         id="g1668">
        <path
           style="fill:#000000;stroke:none"
           gcodetools="Gcodetools orientation point arrow"
           d="m 100,165.1 2.9375,-6.34375 0.8125,1.90625 6.84375,-6.84375 v 0 l 0.6875,0.6875 -6.84375,6.84375 1.90625,0.8125 z"
           id="path1668" />
        <text
           x="110"
           y="155.10001"
           style="font-style:normal;font-variant:normal;font-weight:normal;font-stretch:normal;font-size:10px;font-family:'DejaVu Sans';fill:#000000;fill-opacity:1;stroke:none"
           gcodetools="Gcodetools orientation point text"
           xml:space="preserve"
           id="text1668"><tspan
             x="110"
             y="155.10001"
             sodipodi:role="line"
             id="tspan1668">(100.0; 0.0; -1.999)</tspan></text>
      </g>
    </g>
    <path
       id="rect1670"
       style="opacity:1;vector-effect:none;fill:none;fill-rule:evenodd;stroke:#000000;stroke-width:0.264583;stop-color:#000000;stop-opacity:1"
       d="m -97.673569,94.779533 h 69.456757 v 52.816077 h -69.456757 z" />
    <g
       id="g3282" />
    <g
       gcodetools="Preview group"
       id="g3285">
      <path
         gcodetools="Preview"
         style="fill:none;stroke:#ff8888;stroke-width:1;marker-end:url(#DrawCurveMarker)"
         d="m -97.6736,94.7795 h 69.4568"
         id="path3282" />
      <path
         gcodetools="Preview"
         style="fill:none;stroke:#ff8888;stroke-width:1;marker-end:url(#DrawCurveMarker)"
         d="M -28.2168,94.7795 V 147.596"
         id="path3283" />
      <path
         gcodetools="Preview"
         style="fill:none;stroke:#ff8888;stroke-width:1;marker-end:url(#DrawCurveMarker)"
         d="M -28.2168,147.596 H -97.6736"
         id="path3284" />
      <path
         gcodetools="Preview"
         style="fill:none;stroke:#ff8888;stroke-width:1;marker-end:url(#DrawCurveMarker)"
         d="M -97.6736,147.596 V 94.7795"
         id="path3285" />
    </g>
    <g
       id="g3286" />
    <g
       gcodetools="Preview group"
       id="g3289">
      <path
         gcodetools="Preview"
         style="fill:none;stroke:#ff8888;stroke-width:1;marker-end:url(#DrawCurveMarker)"
         d="m -97.6736,94.7795 h 69.4568"
         id="path3286" />
      <path
         gcodetools="Preview"
         style="fill:none;stroke:#ff8888;stroke-width:1;marker-end:url(#DrawCurveMarker)"
         d="M -28.2168,94.7795 V 147.596"
         id="path3287" />
      <path
         gcodetools="Preview"
         style="fill:none;stroke:#ff8888;stroke-width:1;marker-end:url(#DrawCurveMarker)"
         d="M -28.2168,147.596 H -97.6736"
         id="path3288" />
      <path
         gcodetools="Preview"
         style="fill:none;stroke:#ff8888;stroke-width:1;marker-end:url(#DrawCurveMarker)"
         d="M -97.6736,147.596 V 94.7795"
         id="path3289" />
    </g>
    <g
       id="g3290" />
    <g
       gcodetools="Preview group"
       id="g3293">
      <path
         gcodetools="Preview"
         style="fill:none;stroke:#ff8888;stroke-width:1;marker-end:url(#DrawCurveMarker)"
         d="m -97.6736,94.7795 h 69.4568"
         id="path3290" />
      <path
         gcodetools="Preview"
         style="fill:none;stroke:#ff8888;stroke-width:1;marker-end:url(#DrawCurveMarker)"
         d="M -28.2168,94.7795 V 147.596"
         id="path3291" />
      <path
         gcodetools="Preview"
         style="fill:none;stroke:#ff8888;stroke-width:1;marker-end:url(#DrawCurveMarker)"
         d="M -28.2168,147.596 H -97.6736"
         id="path3292" />
      <path
         gcodetools="Preview"
         style="fill:none;stroke:#ff8888;stroke-width:1;marker-end:url(#DrawCurveMarker)"
         d="M -97.6736,147.596 V 94.7795"
         id="path3293" />
    </g>
  </g>
  <g
     id="g1670" />
</svg>
